<svg height="512pt" viewBox="0 0 512 512" width="512pt" xmlns="http://www.w3.org/2000/svg"><path d="m512 256.101562c0-.035156 0-.066406 0-.101562 0-68.378906-26.628906-132.667969-74.980469-181.019531-48.3125-48.3125-112.535156-74.933594-180.851562-74.97656275-.015625 0-.027344-.00390625-.039063-.00390625-.011718 0-.019531 0-.027344 0-.035156 0-.066406 0-.101562 0-68.378906 0-132.667969 26.628906-181.019531 74.980469-48.351563 48.351562-74.980469 112.640625-74.980469 181.019531 0 52.121094 15.570312 102.273438 45.023438 145.042969 3.132812 4.546875 9.359374 5.695312 13.910156 2.5625 4.546875-3.132813 5.695312-9.359375 2.5625-13.910157-27.148438-39.414062-41.496094-85.644531-41.496094-133.695312 0-126.820312 100.558594-230.582031 226.128906-235.777344v66.207032c-89.101562 5.195312-160 79.316406-160 169.699218 0 93.734375 76.261719 170 170 170 43.277344 0 82.820313-16.265625 112.863282-42.992187l46.578124 46.578125c-42.042968 38.648437-98.09375 62.285156-159.570312 62.285156-48.050781 0-94.28125-14.347656-133.691406-41.492188-4.550782-3.132812-10.777344-1.988281-13.910156 2.5625-3.132813 4.546876-1.984376 10.773438 2.566406 13.90625 42.761718 29.457032 92.917968 45.023438 145.035156 45.023438 68.378906 0 132.667969-26.628906 181.019531-74.980469 48.3125-48.3125 74.933594-112.535156 74.976563-180.851562 0-.015625.003906-.027344.003906-.039063 0-.011718 0-.019531 0-.027344zm-82.285156 159.46875-46.578125-46.578124c24.652343-27.710938 40.394531-63.507813 42.6875-102.863282h65.945312c-2.441406 57.488282-25.539062 109.71875-62.054687 149.441406zm62.0625-169.441406h-65.953125c-5-85.792968-73.90625-154.699218-159.695313-159.699218v-66.199219c122.171875 5.1875 220.59375 103.6875 225.648438 225.898437zm-385.648438 10c0-82.710937 67.289063-150 150-150 82.707032 0 150 67.289063 150 150 0 82.707032-67.292968 150-150 150-82.710937 0-150-67.292968-150-150zm0 0"/><path d="m340 238h-46v-54c0-5.523438-4.476562-10-10-10h-56c-5.523438 0-10 4.476562-10 10v54h-46c-5.523438 0-10 4.476562-10 10v80c0 5.523438 4.476562 10 10 10h168c5.523438 0 10-4.476562 10-10v-80c0-5.523438-4.476562-10-10-10zm-158 20h36v60h-36zm56-10v-54h36v124h-36zm92 70h-36v-60h36zm0 0"/><path d="m82.050781 419.949219c-2.628906 0-5.210937 1.070312-7.070312 2.929687s-2.929688 4.441406-2.929688 7.070313c0 2.628906 1.070313 5.210937 2.929688 7.070312s4.441406 2.929688 7.070312 2.929688c2.640625 0 5.210938-1.070313 7.070313-2.929688s2.929687-4.441406 2.929687-7.070312c0-2.640625-1.070312-5.210938-2.929687-7.070313s-4.441406-2.929687-7.070313-2.929687zm0 0"/></svg>