<svg height="512pt" viewBox="0 -14 512 512" width="512pt" xmlns="http://www.w3.org/2000/svg"><path d="m451.730469 218.863281c0-50.234375-17.445313-99.304687-49.121094-138.171875-31.222656-38.316406-74.867187-65.191406-122.886719-75.664062-5.398437-1.175782-10.722656 2.242187-11.898437 7.636718-1.175781 5.394532 2.242187 10.71875 7.636719 11.894532 87.285156 19.042968 151.5 95.660156 156.019531 184.308594h-198.617188c-1.558593 0-3.023437.363281-4.339843 1-.003907-.003907-.003907-.003907-.011719-.007813l-178.824219 86.402344c-10.097656-23.804688-15.695312-49.957031-15.695312-77.398438 0-50.382812 19.363281-97.484375 51.542968-133.1875l12.097656 12.09375c1.953126 1.953125 4.511719 2.929688 7.070313 2.929688 2.554687 0 5.113281-.976563 7.066406-2.929688s2.929688-4.511719 2.929688-7.070312c0-2.554688-.976563-5.117188-2.929688-7.066407l-12.125-12.128906c25.0625-22.796875 56.023438-39.394531 90.617188-46.941406 5.394531-1.175781 8.8125-6.503906 7.636719-11.898438-1.179688-5.394531-6.503907-8.816406-11.898438-7.636718-37.496094 8.179687-72.324219 26.359375-100.65625 52.175781l-14.292969-14.289063c-.003906-.003906-.007812-.007812-.007812-.011718-.003907-.003906-.003907-.003906-.007813-.003906-.003906-.003907-.003906-.003907-.003906-.007813-.003906-.003906-.007812-.003906-.011719-.007813-.953125-.945312-2.046875-1.65625-3.214843-2.140624-1.140626-.472657-2.390626-.738282-3.699219-.753907-.003907 0-.007813 0-.015625 0-.003906 0-.007813 0-.011719 0-.035156 0-.074219 0-.109375 0h-53.972656c-5.519532 0-9.996094 4.476563-9.996094 9.996094 0 5.523437 4.476562 9.996094 9.996094 9.996094h49.84375l11.359375 11.363281c-2.773438 3.039062-5.476563 6.152344-8.085938 9.351562-31.671875 38.867188-49.117187 87.9375-49.117187 138.167969 0 58.460938 22.765625 113.421875 64.105468 154.761719 5.378907 5.382812 10.996094 10.441406 16.816407 15.183594l-35.078125 35.074218h-49.84375c-5.519532 0-9.996094 4.476563-9.996094 9.996094 0 5.523438 4.476562 10 9.996094 10h53.988281.023437.015626.019531c1.332031-.007812 2.605469-.277344 3.765625-.757812 1.179687-.488282 2.285156-1.210938 3.246094-2.171875l40.101562-40.105469c35.714844 23.992188 77.71875 36.886719 121.707031 36.886719 5.519531 0 9.996094-4.476563 9.996094-9.996094v-198.875h198.875c5.519531 0 9.996094-4.476563 9.996094-9.996094zm-326.039063 167.445313 8.34375-8.34375c1.953125-1.949219 2.929688-4.507813 2.929688-7.066406 0-2.558594-.976563-5.117188-2.929688-7.070313-3.90625-3.902344-10.234375-3.902344-14.140625 0l-10.683593 10.683594c-20.675782-16.460938-38.003907-36.945313-50.804688-60.257813l164.457031-79.457031v182.691406c-35.648437-1.777343-68.851562-12.992187-97.171875-31.179687zm0 0"/><path d="m502.003906 423.882812h-49.84375l-11.425781-11.425781c36.914063-40.402343 57.132813-92.375 57.132813-147.457031 0-5.523438-4.476563-9.996094-9.996094-9.996094h-208.871094c-5.519531 0-9.996094 4.472656-9.996094 9.996094v208.867188c0 5.523437 4.476563 10 9.996094 10 55.148438 0 107.179688-20.269532 147.601562-57.265626l14.335938 14.335938c.03125.035156.066406.066406.101562.101562l.007813.007813.007813.007813c.929687.902343 1.988281 1.585937 3.121093 2.054687 1.183594.492187 2.480469.765625 3.839844.765625h53.988281c5.519532 0 9.996094-4.476562 9.996094-9.996094 0-5.523437-4.476562-9.996094-9.996094-9.996094zm-213.003906 39.742188v-188.628906h188.625c-2.351562 47.28125-21.300781 90.257812-51.117188 123.238281l-16.480468-16.480469c-3.902344-3.902344-10.230469-3.902344-14.136719 0-1.953125 1.953125-2.929687 4.511719-2.929687 7.070313 0 2.558593.976562 5.117187 2.929687 7.066406l16.488281 16.488281c-32.996094 29.890625-76.035156 48.890625-123.378906 51.246094zm0 0"/><path d="m232.863281 20c5.519531 0 9.996094-4.476562 9.996094-9.996094v-.011718c0-5.519532-4.476563-9.992188-9.996094-9.992188s-9.996093 4.480469-9.996093 10.003906c0 5.519532 4.472656 9.996094 9.996093 9.996094zm0 0"/></svg>