<svg height="512pt" viewBox="0 0 512 512" width="512pt" xmlns="http://www.w3.org/2000/svg"><path d="m502 492h-482v-482c0-5.523438-4.476562-10-10-10s-10 4.476562-10 10v492c0 5.523438 4.476562 10 10 10h492c5.523438 0 10-4.476562 10-10s-4.476562-10-10-10zm0 0"/><path d="m70 402h26v46c0 5.523438 4.476562 10 10 10s10-4.476562 10-10v-46h26c5.523438 0 10-4.476562 10-10v-200c0-5.523438-4.476562-10-10-10h-26v-46c0-5.523438-4.476562-10-10-10s-10 4.476562-10 10v46h-26c-5.523438 0-10 4.476562-10 10v55c0 5.523438 4.476562 10 10 10s10-4.476562 10-10v-45h52v180h-52v-45c0-5.523438-4.476562-10-10-10s-10 4.476562-10 10v55c0 5.523438 4.476562 10 10 10zm0 0"/><path d="m190 330h26v46c0 5.523438 4.476562 10 10 10s10-4.476562 10-10v-46h26c5.523438 0 10-4.476562 10-10v-200c0-5.523438-4.476562-10-10-10h-26v-46c0-5.523438-4.476562-10-10-10s-10 4.476562-10 10v46h-26c-5.523438 0-10 4.476562-10 10v200c0 5.523438 4.476562 10 10 10zm10-200h52v180h-52zm0 0"/><path d="m310 276h26v46c0 5.523438 4.476562 10 10 10s10-4.476562 10-10v-46h26c5.523438 0 10-4.476562 10-10v-200c0-5.523438-4.476562-10-10-10h-26v-46c0-5.523438-4.476562-10-10-10s-10 4.476562-10 10v46h-26c-5.523438 0-10 4.476562-10 10v200c0 5.523438 4.476562 10 10 10zm10-200h52v180h-52zm0 0"/><path d="m502 182h-26v-46c0-5.523438-4.476562-10-10-10s-10 4.476562-10 10v46h-26c-5.523438 0-10 4.476562-10 10v200c0 5.523438 4.476562 10 10 10h26v46c0 5.523438 4.476562 10 10 10s10-4.476562 10-10v-46h26c5.523438 0 10-4.476562 10-10v-200c0-5.523438-4.476562-10-10-10zm-10 200h-52v-180h52zm0 0"/><path d="m70 302c2.628906 0 5.210938-1.070312 7.070312-2.929688 1.859376-1.859374 2.929688-4.441406 2.929688-7.070312s-1.070312-5.210938-2.929688-7.070312c-1.859374-1.859376-4.441406-2.929688-7.070312-2.929688-2.640625 0-5.210938 1.070312-7.070312 2.929688-1.859376 1.859374-2.929688 4.429687-2.929688 7.070312 0 2.628906 1.070312 5.210938 2.929688 7.070312 1.859374 1.859376 4.441406 2.929688 7.070312 2.929688zm0 0"/></svg>