<svg height="512pt" viewBox="0 0 512 512" width="512pt" xmlns="http://www.w3.org/2000/svg"><path d="m502 64c5.523438 0 10-4.476562 10-10v-44c0-5.523438-4.476562-10-10-10h-201c-5.523438 0-10 4.476562-10 10s4.476562 10 10 10h191v24h-472v-24h191c5.523438 0 10-4.476562 10-10s-4.476562-10-10-10h-201c-5.523438 0-10 4.476562-10 10v44c0 5.523438 4.476562 10 10 10h10v268h-10c-5.523438 0-10 4.476562-10 10v44c0 5.523438 4.476562 10 10 10h143.679688l-58.3125 101c-1.789063 3.09375-1.789063 6.90625 0 10 1.785156 3.09375 5.085937 5 8.660156 5h56.0625c3.574218 0 6.875-1.90625 8.660156-5l28.289062-49h117.921876l28.289062 49c1.785156 3.09375 5.085938 5 8.660156 5h56.0625c3.574219 0 6.875-1.90625 8.660156-5 1.785157-3.09375 1.785157-6.90625 0-10l-58.3125-101h143.679688c5.523438 0 10-4.476562 10-10v-44c0-5.523438-4.476562-10-10-10h-10v-268zm-347.683594 428h-32.96875l55.425782-96h32.96875zm54.273438-54 24.246094-42h46.328124l24.25 42zm182.0625 54h-32.96875l-55.425782-96h32.96875zm101.347656-116h-472v-24h472zm-20-44h-432v-268h432zm0 0"/><path d="m64 308h384c5.523438 0 10-4.476562 10-10s-4.476562-10-10-10h-14v-180c0-5.523438-4.476562-10-10-10h-48c-5.523438 0-10 4.476562-10 10v180h-28v-142.5c0-5.523438-4.476562-10-10-10h-48c-5.523438 0-10 4.476562-10 10v142.5h-28v-95c0-5.523438-4.476562-10-10-10h-48c-5.523438 0-10 4.476562-10 10v95h-28v-54c0-5.523438-4.476562-10-10-10h-48c-5.523438 0-10 4.476562-10 10v54h-14c-5.523438 0-10 4.476562-10 10s4.476562 10 10 10zm322-190h28v170h-28zm-96 37.5h28v132.5h-28zm-96 47.5h28v85h-28zm-96 41h28v44h-28zm0 0"/><path d="m256 20c2.628906 0 5.210938-1.070312 7.070312-2.929688 1.859376-1.859374 2.929688-4.441406 2.929688-7.070312s-1.070312-5.210938-2.929688-7.070312c-1.859374-1.859376-4.441406-2.929688-7.070312-2.929688s-5.210938 1.070312-7.070312 2.929688c-1.859376 1.859374-2.929688 4.441406-2.929688 7.070312s1.070312 5.210938 2.929688 7.070312c1.859374 1.859376 4.441406 2.929688 7.070312 2.929688zm0 0"/></svg>