<svg height="512pt" viewBox="-54 0 512 512" width="512pt" xmlns="http://www.w3.org/2000/svg"><path d="m370 0h-336c-18.746094 0-34 15.253906-34 34v177c0 5.523438 4.476562 10 10 10s10-4.476562 10-10v-177c0-7.71875 6.28125-14 14-14h82.832031v20h-66.832031c-5.523438 0-10 4.476562-10 10v412c0 5.523438 4.476562 10 10 10h304c5.523438 0 10-4.476562 10-10v-412c0-5.523438-4.476562-10-10-10h-66.832031v-20h82.832031c7.71875 0 14 6.28125 14 14v444c0 7.71875-6.28125 14-14 14h-336c-7.71875 0-14-6.28125-14-14v-177c0-5.523438-4.476562-10-10-10s-10 4.476562-10 10v177c0 18.746094 15.253906 34 34 34h336c18.746094 0 34-15.253906 34-34v-444c0-18.746094-15.253906-34-34-34zm-26 288.292969v163.707031h-284v-392h56.847656c.335938 16.941406 14.214844 30.625 31.234375 30.625h107.832031c17.023438 0 30.902344-13.683594 31.234376-30.625h56.851562zm-76.832031-228.917969c0 6.203125-5.046875 11.25-11.25 11.25h-107.835938c-6.203125 0-11.25-5.046875-11.25-11.25v-39.375h130.332031v39.375zm0 0"/><path d="m202.488281 116.53125c-.195312 0-.386719.003906-.625.011719-5.464843.074219-9.863281 4.523437-9.863281 10v6.027343c-43.832031 4.984376-78 42.289063-78 87.429688 0 48.523438 39.476562 88 88 88 45.140625 0 82.445312-34.167969 87.425781-78h7.074219c2.660156 0 5.214844-1.0625 7.089844-2.949219 1.878906-1.890625 2.925781-4.445312 2.910156-7.109375-.332031-57.019531-46.992188-103.410156-104.011719-103.410156zm-68.488281 103.46875c0-34.097656 25.230469-62.40625 58-67.257812v67.257812c0 2.761719 1.117188 5.261719 2.929688 7.070312l47.539062 47.539063c-11.316406 8.40625-25.320312 13.390625-40.46875 13.390625-37.496094 0-68-30.503906-68-68zm122.609375 40.46875-30.464844-30.46875h43.113281c-1.671874 11.292969-6.125 21.691406-12.648437 30.46875zm-44.609375-50.46875v-72.933594c38.316406 4.359375 69.007812 34.714844 73.839844 72.933594zm0 0"/><path d="m275.949219 336h-147.644531c-5.523438 0-10 4.476562-10 10s4.476562 10 10 10h147.644531c5.523437 0 10-4.476562 10-10s-4.476563-10-10-10zm0 0"/><path d="m275.949219 384h-147.644531c-5.523438 0-10 4.476562-10 10s4.476562 10 10 10h147.644531c5.523437 0 10-4.476562 10-10s-4.476563-10-10-10zm0 0"/><path d="m10 266.128906c2.628906 0 5.210938-1.070312 7.070312-2.929687 1.859376-1.859375 2.929688-4.4375 2.929688-7.070313 0-2.628906-1.070312-5.207031-2.929688-7.070312-1.859374-1.867188-4.441406-2.929688-7.070312-2.929688s-5.210938 1.0625-7.070312 2.929688c-1.859376 1.851562-2.929688 4.433594-2.929688 7.070312 0 2.632813 1.070312 5.210938 2.929688 7.070313 1.859374 1.859375 4.441406 2.929687 7.070312 2.929687zm0 0"/></svg>