<svg height="512pt" viewBox="0 -42 512.00038 512" width="512pt" xmlns="http://www.w3.org/2000/svg"><path d="m509.070312 50.929688-48-48c-2.859374-2.8593755-7.160156-3.714844-10.898437-2.167969-3.734375 1.546875-6.171875 5.191406-6.171875 9.238281v10h-143c-5.523438 0-10 4.476562-10 10 0 5.519531 4.476562 10 10 10h153c4.289062 0 7.945312-2.699219 9.367188-6.492188l24.492187 24.492188-24.492187 24.492188c-1.421876-3.792969-5.078126-6.492188-9.367188-6.492188h-65.601562c-.0625 0-.125 0-.191407 0h-132.207031c-76.09375 0-138 61.90625-138 138s61.90625 138 138 138 138-61.90625 138-138c0-49.941406-26.667969-93.773438-66.507812-118h56.382812c29.777344 32.230469 46.125 73.96875 46.125 118 0 95.945312-78.054688 174-174 174s-174-78.054688-174-174c0-80.066406 54.179688-149.496094 131.757812-168.839844 5.359376-1.335937 8.621094-6.765625 7.285157-12.121094-1.335938-5.359374-6.765625-8.621093-12.125-7.285156-41.246094 10.285156-78.570313 34.40625-105.101563 67.917969-27.355468 34.554687-41.816406 76.164063-41.816406 120.328125 0 44.359375 14.976562 85.28125 40.125 118h-34.125v-10c0-4.046875-2.4375-7.691406-6.171875-9.238281-3.738281-1.546875-8.039063-.691407-10.898437 2.167969l-48 48c-3.90625 3.902343-3.90625 10.234374 0 14.140624l48 48c1.914062 1.914063 4.46875 2.929688 7.070312 2.929688 1.289062 0 2.589844-.25 3.828125-.761719 3.734375-1.546875 6.171875-5.195312 6.171875-9.238281v-10h188c106.972656 0 194-87.027344 194-194 0-43.128906-14.074219-84.273438-40-118h34v10c0 4.042969 2.4375 7.691406 6.171875 9.238281 1.238281.511719 2.535156.761719 3.824219.761719 2.605468 0 5.160156-1.015625 7.074218-2.929688l48-48c3.90625-3.90625 3.90625-10.238281 0-14.140624zm-135.070312 163.070312c0 65.0625-52.933594 118-118 118s-118-52.9375-118-118c0-65.066406 52.933594-118 118-118s118 52.933594 118 118zm-316 174c-4.289062 0-7.945312 2.699219-9.367188 6.492188l-24.492187-24.492188 24.492187-24.492188c1.421876 3.792969 5.078126 6.492188 9.367188 6.492188h61.792969c14.722656 14.535156 31.753906 26.734375 50.484375 36zm0 0"/><path d="m249.101562 221.199219c1.953126 1.949219 4.511719 2.925781 7.070313 2.925781s5.117187-.976562 7.070313-2.925781l54.445312-54.449219c3.90625-3.90625 3.90625-10.238281 0-14.144531-3.902344-3.902344-10.234375-3.902344-14.140625 0l-47.378906 47.378906-22.242188-22.242187c-3.902343-3.90625-10.234375-3.90625-14.140625 0-3.90625 3.902343-3.90625 10.234374 0 14.140624zm0 0"/><path d="m256 136c2.628906 0 5.210938-1.070312 7.070312-2.929688 1.859376-1.859374 2.929688-4.441406 2.929688-7.070312s-1.070312-5.210938-2.929688-7.070312c-1.859374-1.859376-4.441406-2.929688-7.070312-2.929688s-5.210938 1.070312-7.070312 2.929688c-1.859376 1.859374-2.929688 4.441406-2.929688 7.070312s1.070312 5.210938 2.929688 7.070312c1.859374 1.859376 4.441406 2.929688 7.070312 2.929688zm0 0"/><path d="m256 292c-2.628906 0-5.210938 1.070312-7.070312 2.929688-1.859376 1.859374-2.929688 4.441406-2.929688 7.070312s1.070312 5.210938 2.929688 7.070312c1.859374 1.859376 4.441406 2.929688 7.070312 2.929688s5.210938-1.070312 7.070312-2.929688c1.859376-1.859374 2.929688-4.441406 2.929688-7.070312s-1.070312-5.210938-2.929688-7.070312c-1.859374-1.859376-4.441406-2.929688-7.070312-2.929688zm0 0"/><path d="m344 224c2.628906 0 5.210938-1.070312 7.070312-2.929688 1.859376-1.859374 2.929688-4.441406 2.929688-7.070312s-1.070312-5.210938-2.929688-7.070312c-1.859374-1.859376-4.441406-2.929688-7.070312-2.929688s-5.210938 1.070312-7.070312 2.929688c-1.859376 1.859374-2.929688 4.429687-2.929688 7.070312 0 2.628906 1.070312 5.210938 2.929688 7.070312 1.859374 1.859376 4.441406 2.929688 7.070312 2.929688zm0 0"/><path d="m160.929688 206.929688c-1.859376 1.859374-2.929688 4.441406-2.929688 7.070312s1.070312 5.210938 2.929688 7.070312c1.859374 1.859376 4.441406 2.929688 7.070312 2.929688s5.210938-1.070312 7.070312-2.929688c1.859376-1.859374 2.929688-4.441406 2.929688-7.070312s-1.070312-5.210938-2.929688-7.070312c-1.859374-1.859376-4.441406-2.929688-7.070312-2.929688s-5.210938 1.070312-7.070312 2.929688zm0 0"/><path d="m256 40c2.628906 0 5.210938-1.070312 7.070312-2.929688 1.859376-1.859374 2.929688-4.441406 2.929688-7.070312s-1.070312-5.210938-2.929688-7.070312c-1.859374-1.859376-4.441406-2.929688-7.070312-2.929688s-5.210938 1.070312-7.070312 2.929688c-1.859376 1.859374-2.929688 4.441406-2.929688 7.070312s1.070312 5.210938 2.929688 7.070312c1.859374 1.859376 4.441406 2.929688 7.070312 2.929688zm0 0"/></svg>