<svg height="511pt" viewBox="0 1 511 511.99948" width="511pt" xmlns="http://www.w3.org/2000/svg"><path d="m138.5 403h-128c-5.523438 0-10 4.476562-10 10v89c0 5.523438 4.476562 10 10 10h128c5.523438 0 10-4.476562 10-10v-89c0-5.523438-4.476562-10-10-10zm-10 89h-108v-69h108zm0 0"/><path d="m320.5 347h-128c-5.523438 0-10 4.476562-10 10v145c0 5.523438 4.476562 10 10 10h128c5.519531 0 10-4.476562 10-10v-145c0-5.523438-4.480469-10-10-10zm-10 145h-108v-125h108zm0 0"/><path d="m502.496094 251h-127.996094c-5.523438 0-10 4.476562-10 10v241c0 5.523438 4.476562 10 10 10h127.996094c5.523437 0 10-4.476562 10-10v-241c0-5.523438-4.476563-10-10-10zm-10 241h-107.996094v-221h107.996094zm0 0"/><path d="m285.863281 243.089844c5.390625-6.558594 8.636719-14.953125 8.636719-24.089844v-7c0-20.953125-17.046875-38-38-38s-38 17.046875-38 38v7c0 9.136719 3.242188 17.53125 8.636719 24.089844-26.238281 11.390625-44.636719 37.535156-44.636719 67.910156v6c0 5.523438 4.476562 10 10 10h128c5.519531 0 10-4.476562 10-10v-6c0-30.375-18.402344-56.519531-44.636719-67.910156zm-47.363281-24.089844v-7c0-9.925781 8.074219-18 18-18 9.921875 0 18 8.074219 18 18v7c0 9.925781-8.078125 18-18 18-9.925781 0-18-8.074219-18-18zm-35.855469 88c1.808594-24.5625 20.117188-44.597656 43.855469-49.0625v11.0625c0 5.523438 4.476562 10 10 10s10-4.476562 10-10v-11.0625c23.738281 4.464844 42.046875 24.5 43.855469 49.0625zm0 0"/><path d="m103.863281 299.089844c5.394531-6.558594 8.636719-14.953125 8.636719-24.089844v-7c0-20.953125-17.046875-38-38-38s-38 17.046875-38 38v7c0 9.136719 3.242188 17.53125 8.636719 24.089844-26.234375 11.390625-44.636719 37.535156-44.636719 67.910156v6c0 5.523438 4.476562 10 10 10h128c5.523438 0 10-4.476562 10-10v-6c0-30.375-18.402344-56.519531-44.636719-67.910156zm-47.363281-24.089844v-7c0-9.925781 8.074219-18 18-18s18 8.074219 18 18v7c0 9.925781-8.074219 18-18 18s-18-8.074219-18-18zm-35.851562 88c1.804687-24.5625 20.113281-44.601562 43.851562-49.0625v11.0625c0 5.523438 4.476562 10 10 10s10-4.476562 10-10v-11.0625c23.738281 4.460938 42.046875 24.5 43.855469 49.0625zm0 0"/><path d="m467.863281 147.09375c5.390625-6.5625 8.632813-14.957031 8.632813-24.09375v-7c0-20.953125-17.046875-38-38-38-20.949219 0-37.996094 17.046875-37.996094 38v7c0 9.136719 3.242188 17.53125 8.632812 24.09375-26.234374 11.386719-44.632812 37.53125-44.632812 67.90625v6c0 5.523438 4.476562 10 10 10h127.996094c5.523437 0 10-4.476562 10-10v-6c0-30.375-18.398438-56.519531-44.632813-67.90625zm-47.363281-24.09375v-7c0-9.925781 8.074219-18 17.996094-18 9.925781 0 18 8.074219 18 18v7c0 9.925781-8.074219 18-18 18-9.921875 0-17.996094-8.074219-17.996094-18zm-35.855469 88c1.808594-24.558594 20.117188-44.597656 43.855469-49.0625v11.0625c0 5.523438 4.476562 10 10 10s10-4.476562 10-10v-11.0625c23.734375 4.464844 42.046875 24.503906 43.851562 49.0625zm0 0"/><path d="m117.585938 155.617188c1.210937 0 2.441406-.21875 3.640624-.6875l294.203126-114.996094-2.203126 4.984375c-2.230468 5.050781.054688 10.953125 5.109376 13.1875 1.3125.578125 2.683593.855469 4.03125.855469 3.84375 0 7.503906-2.226563 9.15625-5.964844l11.933593-27.019532c2.230469-5.054687-.054687-10.957031-5.105469-13.1875l-27.023437-11.933593c-5.050781-2.230469-10.957031.054687-13.1875 5.105469-2.230469 5.050781.054687 10.957031 5.109375 13.1875l4.886719 2.160156-294.191407 114.996094c-5.144531 2.007812-7.683593 7.808593-5.675781 12.953124 1.546875 3.945313 5.320313 6.359376 9.316407 6.359376zm0 0"/><path d="m75.667969 172c2.632812 0 5.210937-1.070312 7.070312-2.929688 1.859375-1.859374 2.929688-4.441406 2.929688-7.070312s-1.070313-5.210938-2.929688-7.070312c-1.859375-1.859376-4.4375-2.929688-7.070312-2.929688-2.628907 0-5.207031 1.070312-7.070313 2.929688-1.867187 1.859374-2.929687 4.441406-2.929687 7.070312s1.0625 5.210938 2.929687 7.070312c1.863282 1.859376 4.441406 2.929688 7.070313 2.929688zm0 0"/></svg>