<svg height="511pt" viewBox="0 1 511.99932 511" width="511pt" xmlns="http://www.w3.org/2000/svg"><path d="m474 320.539062c-2.632812 0-5.210938 1.066407-7.070312 2.929688-1.859376 1.859375-2.929688 4.4375-2.929688 7.070312 0 2.628907 1.070312 5.207032 2.929688 7.066407 1.859374 1.863281 4.4375 2.933593 7.070312 2.933593 2.628906 0 5.207031-1.070312 7.070312-2.933593 1.859376-1.859375 2.929688-4.4375 2.929688-7.066407 0-2.632812-1.070312-5.210937-2.929688-7.070312-1.863281-1.859375-4.441406-2.929688-7.070312-2.929688zm0 0"/><path d="m509.070312 107.425781-64-64c-3.90625-3.902343-10.238281-3.902343-14.140624 0l-64 64c-2.863282 2.863281-3.714844 7.164063-2.167969 10.898438 1.546875 3.738281 5.191406 6.175781 9.238281 6.175781h18v85.195312c-23.554688-26.488281-54.703125-46.074218-90-55.304687v-69.890625h18c4.042969 0 7.691406-2.4375 9.238281-6.175781 1.550781-3.734375.691407-8.035157-2.167969-10.898438l-64-64c-3.902343-3.902343-10.234374-3.902343-14.140624 0l-64 64c-2.859376 2.863281-3.714844 7.164063-2.167969 10.898438 1.546875 3.738281 5.195312 6.175781 9.238281 6.175781h18v69.890625c-35.296875 9.230469-66.445312 28.816406-90 55.304687v-85.195312h18c4.042969 0 7.691406-2.4375 9.238281-6.175781 1.546875-3.734375.691407-8.035157-2.167969-10.898438l-64-64c-3.902343-3.902343-10.234374-3.902343-14.140624 0l-64 64c-2.8593755 2.863281-3.714844 7.164063-2.167969 10.898438 1.546875 3.738281 5.195312 6.175781 9.238281 6.175781h18v206.035156c0 5.523438 4.476562 10 10 10s10-4.476562 10-10v-216.035156c0-5.523438-4.476562-10-10-10h-3.859375l39.859375-39.859375 39.859375 39.859375h-3.859375c-5.523438 0-10 4.476562-10 10v122.347656c-16.496094 27.378906-26 59.425782-26 93.648438 0 99.496094 80.253906 180.585937 179.425781 181.96875.855469.023437 1.714844.03125 2.574219.03125s1.71875-.007813 2.574219-.03125c99.171875-1.382813 179.425781-82.472656 179.425781-181.96875 0-34.226563-9.503906-66.269532-26-93.648438v-122.347656c0-5.523438-4.476562-10-10-10h-3.859375l39.859375-39.859375 39.855469 39.859375h-3.855469c-5.523438 0-10 4.476562-10 10v171.035156c0 5.523438 4.476562 10 10 10s10-4.476562 10-10v-161.035156h18c4.042969 0 7.691406-2.4375 9.238281-6.175781 1.546875-3.734375.691407-8.035157-2.167969-10.898438zm-110.101562 299.1875h-43.152344v-66.117187h61.867188c-1.457032 23.78125-8.0625 46.1875-18.714844 66.117187zm-285.9375 0c-10.652344-19.929687-17.257812-42.335937-18.714844-66.117187h61.867188v66.117187zm0-152.230469h43.152344v66.113282h-61.867188c1.457032-23.777344 8.0625-46.183594 18.714844-66.113282zm152.96875-20v-65.160156c34.675781 4.359375 62.488281 31.035156 68.558594 65.160156zm69.816406 20v66.113282h-69.816406v-66.113282zm-89.816406-85.160156v65.160156h-68.558594c6.070313-34.125 33.878906-60.800781 68.558594-65.160156zm0 85.160156v66.113282h-69.816406v-66.113282zm-69.816406 86.113282h69.816406v66.117187h-69.816406zm69.816406 86.117187v65.234375c-34.707031-4.359375-62.53125-31.074218-68.574219-65.234375zm20 65.234375v-65.234375h68.570312c-6.039062 34.164063-33.867187 60.875-68.570312 65.234375zm0-85.234375v-66.117187h69.816406v66.117187zm89.816406-86.117187v-66.113282h43.148438c10.65625 19.929688 17.261718 42.335938 18.714844 66.113282zm30.503906-86.113282h-31.492187c-2.296875-16.261718-8.519531-31.28125-17.683594-44.050781 19.25 11.183594 35.992188 26.222657 49.175781 44.050781zm-166.320312-169.882812h-3.859375l39.859375-39.859375 39.855469 39.859375h-3.855469c-5.523438 0-10 4.476562-10 10v75.863281c-8.496094-1.222656-17.171875-1.863281-26-1.863281s-17.503906.644531-26 1.863281v-75.863281c0-5.523438-4.476562-10-10-10zm-45.144531 125.832031c-9.164063 12.769531-15.390625 27.785157-17.683594 44.050781h-31.492187c13.183593-17.828124 29.925781-32.867187 49.175781-44.050781zm-49.175781 236.28125h31.480468c2.277344 16.234375 8.46875 31.230469 17.597656 43.992188-19.210937-11.179688-35.917968-26.195313-49.078124-43.992188zm211.5625 43.992188c9.125-12.761719 15.320312-27.757813 17.597656-43.992188h31.480468c-13.160156 17.796875-29.871093 32.8125-49.078124 43.992188zm0 0"/></svg>