<svg height="512pt" viewBox="-6 0 511 512" width="512pt" xmlns="http://www.w3.org/2000/svg"><path d="m58.5 148h224c5.523438 0 10-4.476562 10-10v-80c0-5.523438-4.476562-10-10-10h-67c-5.523438 0-10 4.476562-10 10s4.476562 10 10 10h57v60h-204v-60h57c5.523438 0 10-4.476562 10-10s-4.476562-10-10-10h-67c-5.523438 0-10 4.476562-10 10v80c0 5.523438 4.476562 10 10 10zm0 0"/><path d="m370.5 276c-5.523438 0-10 4.476562-10 10v10.46875c-6.871094.632812-13.558594 1.910156-20 3.773438v-270.242188c0-16.542969-13.457031-30-30-30h-280c-16.542969 0-30 13.457031-30 30v372c0 16.542969 13.457031 30 30 30h235.6875c12.367188 46.019531 54.441406 80 104.3125 80 56.179688 0 102.46875-43.117188 107.53125-98h10.46875c5.523438 0 10-4.476562 10-10 0-70.578125-57.421875-128-128-128zm10 20.460938c51.59375 4.753906 92.785156 45.945312 97.539062 97.539062h-97.539062zm-350 115.539062c-5.515625 0-10-4.484375-10-10v-372c0-5.515625 4.484375-10 10-10h280c5.515625 0 10 4.484375 10 10v278.296875c-10.453125 5.480469-19.90625 12.625-28 21.082031v-143.378906c0-5.523438-4.476562-10-10-10h-224c-5.523438 0-10 4.476562-10 10v188c0 5.523438 4.476562 10 10 10h205.863281c-1.21875 6.484375-1.863281 13.167969-1.863281 20 0 2.691406.101562 5.359375.296875 8zm242-173.332031h-54.667969v-42.667969h54.667969zm-74.667969 0h-54.664062v-42.667969h54.664062zm0 62.664062h-54.664062v-42.664062h54.664062zm-129.332031-42.664062h54.667969v42.664062h-54.667969zm54.667969-20h-54.667969v-42.667969h54.667969zm-54.667969 82.664062h54.667969v42.667969h-54.667969zm74.667969 0h54.664062v42.667969h-54.664062zm74.664062-62.664062h54.667969v99.976562c-.816406 1.761719-1.59375 3.546875-2.316406 5.355469h-52.351563zm64.667969 145.332031c0-45.140625 34.167969-82.449219 78-87.429688v87.429688c0 2.761719 1.117188 5.261719 2.929688 7.070312l61.792968 61.792969c-15.035156 11.972657-34.054687 19.136719-54.722656 19.136719-48.523438 0-88-39.476562-88-88zm156.863281 54.722656-44.71875-44.722656h63.285157c-1.910157 16.78125-8.550782 32.148438-18.566407 44.722656zm0 0"/><path d="m170.5 68c2.628906 0 5.210938-1.070312 7.070312-2.929688 1.859376-1.859374 2.929688-4.441406 2.929688-7.070312s-1.070312-5.210938-2.929688-7.070312c-1.859374-1.859376-4.441406-2.929688-7.070312-2.929688s-5.210938 1.070312-7.070312 2.929688c-1.859376 1.859374-2.929688 4.441406-2.929688 7.070312s1.070312 5.210938 2.929688 7.070312c1.859374 1.859376 4.441406 2.929688 7.070312 2.929688zm0 0"/></svg>