<svg height="512pt" viewBox="-27 0 512 512.001" width="512pt" xmlns="http://www.w3.org/2000/svg"><path d="m373 448c-12.640625 0-24.777344 4.472656-34.355469 12.363281-12.625-15.976562-31.359375-26.050781-51.894531-27.636719 1.691406-4.742187 2.894531-9.6875 3.585938-14.738281h8.160156c5.523437 0 10-4.476562 10-10v-37.894531h93.375c5.523437 0 10-4.480469 10-10v-89.425781c0-2.964844-1.3125-5.773438-3.585938-7.671875l-72.71875-60.816406c-4.09375-29.191407-11.851562-57.730469-23.25-85.28125-17.703125-42.792969-43.269531-81.113282-75.988281-113.890626 0 0-.003906-.003906-.003906-.003906l-.074219-.074218c-3.902344-3.902344-10.230469-3.90625-14.136719-.007813-32.855469 32.796875-58.53125 71.164063-76.3125 114.046875-11.457031 27.617188-19.25 56.230469-23.363281 85.503906l-72.371094 60.523438c-2.269531 1.898437-3.585937 4.707031-3.585937 7.671875v89.425781c0 5.519531 4.480469 10 10 10h93.855469v37.894531c0 5.523438 4.476562 10 10 10h7.324218c.691406 5.0625 1.894532 10.015625 3.589844 14.765625-20.390625 1.675782-38.976562 11.726563-51.53125 27.609375-9.578125-7.890625-21.710938-12.363281-34.351562-12.363281-29.773438 0-54 24.226562-54 54 0 5.523438 4.476562 10 10 10 5.523437 0 10-4.476562 10-10 0-18.746094 15.253906-34 34-34 10.933593 0 21.269531 5.324219 27.65625 14.238281 2.019531 2.816407 5.351562 4.394531 8.8125 4.152344 3.457031-.234375 6.546874-2.246094 8.164062-5.3125 9.296875-17.628906 27.433594-28.578125 47.335938-28.578125 1.617187 0 3.238281.078125 4.847656.222656l38.828125 55.042969c1.875 2.65625 4.921875 4.234375 8.171875 4.234375h.023437c3.257813-.007812 6.308594-1.601562 8.171875-4.273438l38.40625-54.96875c1.738282-.167968 3.492188-.257812 5.246094-.257812 19.898438 0 38.035156 10.949219 47.335938 28.582031 1.613281 3.0625 4.707031 5.074219 8.164062 5.3125 3.445312.238281 6.792969-1.335937 8.808594-4.15625 6.386718-8.914062 16.726562-14.238281 27.660156-14.238281 18.746094 0 34 15.253906 34 34 0 5.523438 4.476562 10 10 10 5.519531 0 10-4.476562 10-10 0-29.777344-24.226562-54-54-54zm18.871094-172.660156v74.753906h-52.871094v-98.90625c0-6.886719-.226562-13.75-.621094-20.585938zm-162.703125-250.984375c20.484375 21.769531 37.6875 45.859375 51.390625 71.644531h-102.9375c13.753906-25.792969 31.003906-49.878906 51.546875-71.644531zm-61.355469 91.644531h122.527344c18.773437 41.984375 28.65625 87.828125 28.65625 135.1875v54.8125h-44.582032c-5.523437 0-10 4.476562-10 10s4.476563 10 10 10h44.582032v24.09375h-180v-24.09375h45.421875c5.519531 0 10-4.476562 10-10s-4.480469-10-10-10h-45.421875v-54.453125c.003906-47.503906 9.941406-93.472656 28.816406-135.546875zm-101.332031 159.339844 53.140625-44.441406c-.398438 6.855468-.625 13.738281-.625 20.648437v98.546875h-52.515625zm222.019531 94.753906v27.894531h-118.164062v-27.894531zm-27.492188 68.890625-31.863281 45.613281-31.71875-44.960937c-.164062-.273438-.34375-.539063-.535156-.800781-4.484375-6.027344-7.550781-13.210938-8.988281-20.847657h82.191406c-1.421875 7.53125-4.425781 14.625-8.808594 20.601563-.09375.128906-.1875.261718-.277344.394531zm0 0"/><path d="m455.425781 50.304688-47.378906-47.375c-3.90625-3.90625-10.234375-3.90625-14.140625 0l-47.375 47.375c-2.859375 2.859374-3.71875 7.160156-2.167969 10.898437 1.546875 3.734375 5.191407 6.171875 9.238281 6.171875h17.421876v111.480469c0 5.519531 4.476562 10 10 10h40c5.519531 0 10-4.480469 10-10v-111.480469h17.328124c4.046876 0 7.691407-2.4375 9.238282-6.171875 1.550781-3.738281.695312-8.039063-2.164063-10.898437zm-34.402343-2.929688c-5.523438 0-10 4.476562-10 10v111.480469h-20v-111.480469c0-5.523438-4.476563-10-10-10h-3.277344l23.230468-23.234375 23.234376 23.234375zm0 0"/><path d="m77.332031 188.855469c5.523438 0 10-4.476563 10-10v-111.480469h17.421875c4.046875 0 7.691406-2.4375 9.238282-6.171875 1.546874-3.738281.691406-8.039063-2.167969-10.898437l-47.375-47.375c-3.90625-3.90625-10.238281-3.90625-14.144531 0l-47.375 47.375c-2.8593755 2.859374-3.714844 7.160156-2.167969 10.898437 1.546875 3.734375 5.195312 6.171875 9.238281 6.171875h17.332031v111.480469c0 5.519531 4.476563 10 10 10zm-19.957031-164.714844 23.234375 23.234375h-3.277344c-5.523437 0-10 4.476562-10 10v111.480469h-20v-111.480469c0-5.523438-4.480469-10-10-10h-3.1875zm0 0"/><path d="m229.417969 265.582031c27.769531 0 50.359375-22.59375 50.359375-50.359375 0-27.769531-22.59375-50.359375-50.359375-50.359375-27.769531 0-50.359375 22.589844-50.359375 50.359375 0 27.765625 22.589844 50.359375 50.359375 50.359375zm0-80.71875c16.738281 0 30.359375 13.617188 30.359375 30.359375 0 16.738282-13.621094 30.355469-30.359375 30.355469-16.742188 0-30.359375-13.617187-30.359375-30.355469 0-16.742187 13.617187-30.359375 30.359375-30.359375zm0 0"/><path d="m229.417969 306c-2.640625 0-5.210938 1.070312-7.070313 2.929688-1.859375 1.859374-2.929687 4.441406-2.929687 7.070312s1.070312 5.210938 2.929687 7.070312c1.859375 1.859376 4.429688 2.929688 7.070313 2.929688 2.628906 0 5.210937-1.070312 7.070312-2.929688 1.859375-1.859374 2.929688-4.441406 2.929688-7.070312s-1.070313-5.210938-2.929688-7.070312c-1.859375-1.859376-4.441406-2.929688-7.070312-2.929688zm0 0"/></svg>