<svg height="511pt" viewBox="0 0 511.99937 511" width="511pt" xmlns="http://www.w3.org/2000/svg"><path d="m502.058594 344.328125-65.476563-65.476563c7.058594-14.203124 11.035157-30.195312 11.035157-47.101562 0-20.292969-5.722657-39.269531-15.636719-55.410156v-165.835938c0-5.523437-4.476563-10.003906-10-10.003906h-140.980469c-5.523438 0-10.003906 4.480469-10.003906 10.003906 0 5.523438 4.480468 10 10.003906 10h130.976562v131.945313c-18.773437-16.726563-43.503906-26.90625-70.566406-26.90625-58.5625 0-106.207031 47.644531-106.207031 106.207031 0 9.113281 1.15625 17.960938 3.324219 26.40625h-36.550782c-5.523437 0-10.003906 4.480469-10.003906 10.003906v29.75h-38.007812c-5.519532 0-10 4.476563-10 10v19.46875h-38.007813c-5.523437 0-10.003906 4.476563-10.003906 10v65.140625c0 5.523438 4.480469 10.003907 10.003906 10.003907h144.027344c5.523437 0 10.003906-4.480469 10.003906-10.003907v-102.65625c19.496094 23.265625 48.757813 38.09375 81.421875 38.09375 16.90625 0 32.898438-3.976562 47.097656-11.035156l23.46875 23.464844v112.09375c0 16.539062-13.457031 29.996093-29.996093 29.996093-16.539063 0-29.996094-13.457031-29.996094-29.996093v-8c0-5.523438-4.476563-10.003907-10-10.003907h-281.984375v-423.972656h130.980469c5.523437 0 10-4.476562 10-10 0-5.523437-4.476563-10.003906-10-10.003906h-140.980469c-5.523438 0-10.003906 4.480469-10.003906 10.003906v433.972656h-29.992188c-5.523437 0-10.003906 4.480469-10.003906 10.003907v8c0 27.570312 22.429688 50 50 50h331.980469c27.570312 0 50-22.429688 50-50v-92.089844l22.007812 22.007813c6.625 6.628906 15.332031 9.941406 24.035157 9.941406 8.703124 0 17.410156-3.3125 24.035156-9.941406 13.253906-13.253907 13.253906-34.820313 0-48.070313zm-386.097656 3.054687h28.003906v45.136719h-28.003906zm48.007812-10.003906v-19.464844h28.007812v74.605469h-28.007812zm76.015625 55.140625h-28.003906v-114.359375h28.003906zm-219.914063 71.960938h311.960938c.414062 10.476562 4.058594 20.132812 9.972656 27.996093h-292.003906c-15.867188 0-28.898438-12.382812-29.929688-27.996093zm235.136719-232.730469c0-47.53125 38.671875-86.203125 86.203125-86.203125 47.535156 0 86.203125 38.671875 86.203125 86.203125s-38.667969 86.203125-86.203125 86.203125c-47.53125 0-86.203125-38.671875-86.203125-86.203125zm170.503907 64.519531 23.898437 23.898438-19.78125 19.78125-23.898437-23.898438c7.429687-5.699219 14.082031-12.355469 19.78125-19.78125zm62.203124 81.984375c-5.453124 5.453125-14.328124 5.453125-19.78125 0l-24.160156-24.160156 19.78125-19.78125 24.160156 24.160156c5.457032 5.453125 5.453126 14.328125 0 19.78125zm0 0"/><path d="m341.410156 168.660156c-5.523437 0-10 4.476563-10 10.003906 0 5.523438 4.476563 10 10 10 23.757813 0 43.085938 19.328126 43.085938 43.085938 0 5.523438 4.480468 10.003906 10 10.003906 5.523437 0 10.003906-4.480468 10.003906-10.003906 0-34.789062-28.300781-63.089844-63.089844-63.089844zm0 0"/><path d="m235.996094 20.503906c2.617187 0 5.199218-1.058594 7.058594-2.929687 1.871093-1.863281 2.941406-4.441407 2.941406-7.074219 0-2.628906-1.070313-5.210938-2.941406-7.070312-1.859376-1.859376-4.429688-2.929688-7.058594-2.929688-2.640625 0-5.222656 1.070312-7.082032 2.929688-1.863281 1.859374-2.933593 4.441406-2.933593 7.070312 0 2.632812 1.070312 5.210938 2.933593 7.074219 1.871094 1.867187 4.441407 2.929687 7.082032 2.929687zm0 0"/><path d="m201.976562 159.558594h-96.019531c-5.519531 0-10 4.480468-10 10.003906s4.480469 10 10 10h96.019531c5.523438 0 10.003907-4.476562 10.003907-10s-4.480469-10.003906-10.003907-10.003906zm0 0"/><path d="m201.976562 207.570312h-96.019531c-5.519531 0-10 4.476563-10 10 0 5.523438 4.480469 10.003907 10 10.003907h96.019531c5.523438 0 10.003907-4.480469 10.003907-10.003907 0-5.523437-4.480469-10-10.003907-10zm0 0"/><path d="m191.976562 65.917969c0 5.480469 4.40625 9.921875 9.867188 9.996093l-14.699219 14.699219-25.230469-25.226562c-3.90625-3.90625-10.238281-3.90625-14.144531 0l-48.882812 48.882812c-3.90625 3.90625-3.90625 10.238281 0 14.144531 1.953125 1.957032 4.511719 2.929688 7.070312 2.929688 2.558594 0 5.121094-.972656 7.074219-2.929688l41.808594-41.808593 25.230468 25.226562c1.875 1.875 4.417969 2.929688 7.070313 2.929688 2.65625 0 5.199219-1.054688 7.074219-2.929688l21.773437-21.773437c.070313 5.460937 4.515625 9.867187 9.992188 9.867187 5.523437 0 10.003906-4.476562 10.003906-10v-24.003906c0-5.527344-4.480469-10.003906-10.003906-10.003906h-24.003907c-5.523437 0-10 4.476562-10 10zm0 0"/></svg>