<svg height="512pt" viewBox="0 0 512 512" width="512pt" xmlns="http://www.w3.org/2000/svg"><path d="m502 491.960938h-17v-144c0-5.523438-4.476562-10-10-10s-10 4.476562-10 10v144h-36v-378h36v144c0 5.523437 4.476562 10 10 10s10-4.476563 10-10v-154c0-5.523438-4.476562-10-10-10h-56c-5.523438 0-10 4.476562-10 10v115.222656h-46c-5.523438 0-10 4.476562-10 10v262.777344h-31v-310c0-5.523438-4.476562-10-10-10h-56c-5.523438 0-10 4.476562-10 10v115.222656h-46c-5.523438 0-10 4.476562-10 10v184.777344h-31v-261.109376c0-5.523437-4.476562-10-10-10h-56c-5.523438 0-10 4.476563-10 10v115.222657h-46c-5.523438 0-10 4.476562-10 10v135.886719h-17c-5.523438 0-10 4.476562-10 10 0 5.523437 4.476562 10 10 10h492c5.523438 0 10-4.476563 10-10 0-5.523438-4.476562-10-10-10zm-455-125.886719h36v125.886719h-36zm56 125.886719v-251.109376h36v251.109376zm107-174.777344h36v174.777344h-36zm56 174.777344v-300h36v300zm107-252.777344h36v252.777344h-36zm0 0"/><path d="m10 20h15c5.523438 0 10-4.476562 10-10s-4.476562-10-10-10h-15c-5.523438 0-10 4.476562-10 10s4.476562 10 10 10zm0 0"/><path d="m10 68h15c5.523438 0 10-4.476562 10-10s-4.476562-10-10-10h-15c-5.523438 0-10 4.476562-10 10s4.476562 10 10 10zm0 0"/><path d="m10 116h15c5.523438 0 10-4.476562 10-10s-4.476562-10-10-10h-15c-5.523438 0-10 4.476562-10 10s4.476562 10 10 10zm0 0"/><path d="m70 20h186.128906c5.519532 0 10-4.476562 10-10s-4.480468-10-10-10h-186.128906c-5.523438 0-10 4.476562-10 10s4.476562 10 10 10zm0 0"/><path d="m70 68h186.128906c5.519532 0 10-4.476562 10-10s-4.480468-10-10-10h-186.128906c-5.523438 0-10 4.476562-10 10s4.476562 10 10 10zm0 0"/><path d="m70 116h186.128906c5.519532 0 10-4.476562 10-10s-4.480468-10-10-10h-186.128906c-5.523438 0-10 4.476562-10 10s4.476562 10 10 10zm0 0"/><path d="m475 292.960938c-2.628906 0-5.210938 1.070312-7.070312 2.929687-1.859376 1.859375-2.929688 4.4375-2.929688 7.070313 0 2.628906 1.070312 5.210937 2.929688 7.070312 1.859374 1.859375 4.441406 2.929688 7.070312 2.929688s5.210938-1.070313 7.070312-2.929688c1.859376-1.859375 2.929688-4.441406 2.929688-7.070312 0-2.632813-1.070312-5.210938-2.929688-7.070313-1.859374-1.859375-4.441406-2.929687-7.070312-2.929687zm0 0"/></svg>