<svg height="512pt" viewBox="0 0 512.001 512" width="512pt" xmlns="http://www.w3.org/2000/svg"><path d="m264.308594 345.613281c-2.628906 0-5.210938 1.058594-7.070313 2.929688-1.867187 1.859375-2.929687 4.429687-2.929687 7.070312 0 2.628907 1.0625 5.210938 2.929687 7.070313 1.859375 1.859375 4.441407 2.929687 7.070313 2.929687s5.210937-1.070312 7.070312-2.929687 2.929688-4.441406 2.929688-7.070313c0-2.640625-1.070313-5.210937-2.929688-7.070312-1.859375-1.871094-4.441406-2.929688-7.070312-2.929688zm0 0"/><path d="m509.070312 2.925781c-1.878906-1.871093-4.417968-2.925781-7.070312-2.925781h-.003906l-67.0625.0429688c-4.046875 0-7.691406 2.4414062-9.234375 6.1757812-1.546875 3.734375-.691407 8.035156 2.167969 10.894531l11.820312 11.820313-10.242188 10.242187h-357.410156c-28.316406 0-51.351562 23.035157-51.351562 51.347657v170.636718l-17.753906 17.753906c-1.875 1.875-2.929688 4.417969-2.929688 7.070313s1.054688 5.195313 2.929688 7.070313l17.753906 17.753906v34.015625c0 28.3125 23.035156 51.347656 51.351562 51.347656h140.925782v46.203125c-32.078126.921875-57.890626 27.28125-57.890626 59.574219 0 5.523437 4.476563 10 10 10h198.476563c5.519531 0 10-4.476563 10-10 0-32.292969-25.816406-58.652344-57.890625-59.574219v-46.203125h140.925781c28.3125 0 51.347657-23.035156 51.347657-51.347656v-254.300781c0-1.753907-.097657-3.492188-.273438-5.214844 2.683594-1.839844 4.34375-4.902344 4.34375-8.242188v-67.066406c0-2.652344-1.054688-5.195312-2.929688-7.074219zm-48.171874 18.9375-1.835938-1.835937 32.9375-.019532v32.953126l-1.871094-1.867188c-3.902344-3.898438-10.230468-3.894531-14.132812.007812l-186.859375 186.859376-86.316407-86.316407c-1.875-1.875-4.417968-2.929687-7.070312-2.929687s-5.195312 1.054687-7.070312 2.929687l-35.828126 35.828125c-3.90625 3.90625-3.90625 10.234375 0 14.140625s10.234376 3.90625 14.140626 0l28.757812-28.757812 86.316406 86.316406c1.875 1.875 4.417969 2.929687 7.070313 2.929687 2.652343 0 5.195312-1.054687 7.074219-2.929687l186.285156-186.289063c3.507812 5.144532 5.433594 11.261719 5.433594 17.640626v224.523437h-434.371094l49.695312-49.695313c3.90625-3.90625 3.90625-10.238281 0-14.144531s-10.234375-3.90625-14.140625 0l-49.875 49.875-15.097656-15.097656 171.609375-171.605469 86.3125 86.316406c1.878906 1.875 4.421875 2.929688 7.074219 2.929688 2.652343 0 5.195312-1.054688 7.070312-2.929688l164.691407-164.691406c3.90625-3.902344 3.90625-10.238281 0-14.140625zm-420.214844 68.660157c0-17.285157 14.0625-31.347657 31.351562-31.347657h337.410156l-120.308593 120.308594-86.316407-86.316406c-3.902343-3.90625-10.234374-3.90625-14.140624 0l-147.996094 147.992187zm311.582031 401.425781h-175.917969c4.441406-17.019531 19.949219-29.617188 38.339844-29.617188h99.238281c18.390625 0 33.898438 12.597657 38.339844 29.617188zm-56.609375-49.617188h-62.699219v-46.160156h62.699219zm160.925781-66.160156h-384.546875c-17.289062 0-31.351562-14.0625-31.351562-31.347656v-9.777344h447.246094v9.777344c0 17.285156-14.0625 31.347656-31.347657 31.347656zm0 0"/><path d="m393.523438 244.085938h57.976562c5.523438 0 10-4.476563 10-10 0-5.523438-4.476562-10-10-10h-57.976562c-5.523438 0-10 4.476562-10 10 0 5.523437 4.476562 10 10 10zm0 0"/><path d="m354.242188 285.425781h97.257812c5.523438 0 10-4.476562 10-10 0-5.523437-4.476562-10-10-10h-97.257812c-5.523438 0-10 4.476563-10 10 0 5.523438 4.476562 10 10 10zm0 0"/><path d="m94.394531 126h-17.28125c-5.523437 0-10 4.476562-10 10s4.476563 10 10 10h17.28125c5.519531 0 9.996094-4.476562 9.996094-10s-4.476563-10-9.996094-10zm0 0"/><path d="m106.101562 84.664062h-28.988281c-5.523437 0-10 4.476563-10 10 0 5.519532 4.476563 9.996094 10 9.996094h28.988281c5.523438 0 10-4.476562 10-9.996094 0-5.523437-4.476562-10-10-10zm0 0"/><path d="m128.003906 216.457031c-2.628906 0-5.210937 1.070313-7.070312 2.929688s-2.929688 4.441406-2.929688 7.070312c0 2.628907 1.066406 5.210938 2.929688 7.078125 1.859375 1.859375 4.441406 2.921875 7.070312 2.921875s5.207032-1.0625 7.066406-2.921875c1.863282-1.867187 2.933594-4.449218 2.933594-7.078125 0-2.628906-1.070312-5.210937-2.933594-7.070312-1.859374-1.859375-4.4375-2.929688-7.066406-2.929688zm0 0"/></svg>