<svg height="512pt" viewBox="0 -20 512.00055 512" width="512pt" xmlns="http://www.w3.org/2000/svg"><path d="m502 452h-18v-161c0-5.523438-4.476562-10-10-10s-10 4.476562-10 10v161h-52v-360.515625c0-5.523437-4.476562-10-10-10h-3.859375l39.859375-39.855469 39.859375 39.855469h-3.859375c-5.523438 0-10 4.476563-10 10v109.515625c0 5.523438 4.476562 10 10 10s10-4.476562 10-10v-99.515625h18c4.042969 0 7.691406-2.4375 9.238281-6.171875s.691407-8.039062-2.167969-10.898438l-64-64c-3.902343-3.902343-10.234374-3.902343-14.140624 0l-64 64c-2.859376 2.859376-3.714844 7.164063-2.167969 10.898438 1.546875 3.738281 5.195312 6.171875 9.238281 6.171875h18v350.515625h-24v-278c0-5.523438-4.476562-10-10-10h-72c-5.523438 0-10 4.476562-10 10v278h-24v-125c0-5.523438-4.476562-10-10-10h-72c-5.523438 0-10 4.476562-10 10v125h-24v-62c0-5.523438-4.476562-10-10-10h-72c-5.523438 0-10 4.476562-10 10v62h-24v-442c0-5.523438-4.476562-10-10-10s-10 4.476562-10 10v452c0 5.523438 4.476562 10 10 10h492c5.523438 0 10-4.476562 10-10s-4.476562-10-10-10zm-438 0v-52h52v52zm116 0v-115h52v115zm116 0v-268h52v268zm0 0"/><path d="m364 37.484375h10c5.523438 0 10-4.476563 10-10 0-5.519531-4.476562-10-10-10h-10c-5.523438 0-10 4.480469-10 10 0 5.523437 4.476562 10 10 10zm0 0"/><path d="m109 37.484375h18.75c5.523438 0 10-4.476563 10-10 0-5.519531-4.476562-10-10-10h-18.75c-5.523438 0-10 4.480469-10 10 0 5.523437 4.476562 10 10 10zm0 0"/><path d="m172.75 37.484375h18.75c5.523438 0 10-4.476563 10-10 0-5.519531-4.476562-10-10-10h-18.75c-5.523438 0-10 4.480469-10 10 0 5.523437 4.476562 10 10 10zm0 0"/><path d="m300.25 37.484375h18.75c5.523438 0 10-4.476563 10-10 0-5.519531-4.476562-10-10-10h-18.75c-5.523438 0-10 4.480469-10 10 0 5.523437 4.476562 10 10 10zm0 0"/><path d="m236.5 37.484375h18.75c5.523438 0 10-4.476563 10-10 0-5.519531-4.476562-10-10-10h-18.75c-5.523438 0-10 4.480469-10 10 0 5.523437 4.476562 10 10 10zm0 0"/><path d="m54 37.484375h10c5.523438 0 10-4.476563 10-10 0-5.519531-4.476562-10-10-10h-10c-5.523438 0-10 4.480469-10 10 0 5.523437 4.476562 10 10 10zm0 0"/><path d="m235.769531 184h10c5.523438 0 10-4.476562 10-10s-4.476562-10-10-10h-10c-5.523437 0-10 4.476562-10 10s4.476563 10 10 10zm0 0"/><path d="m108.808594 184h18.671875c5.523437 0 10-4.476562 10-10s-4.476563-10-10-10h-18.671875c-5.523438 0-10 4.476562-10 10s4.476562 10 10 10zm0 0"/><path d="m172.289062 184h18.671876c5.523437 0 10-4.476562 10-10s-4.476563-10-10-10h-18.671876c-5.523437 0-10 4.476562-10 10s4.476563 10 10 10zm0 0"/><path d="m54 184h10c5.523438 0 10-4.476562 10-10s-4.476562-10-10-10h-10c-5.523438 0-10 4.476562-10 10s4.476562 10 10 10zm0 0"/><path d="m113.667969 310.515625c-5.523438 0-10 4.476563-10 10s4.476562 10 10 10h10c5.523437 0 10-4.476563 10-10s-4.476563-10-10-10zm0 0"/><path d="m54 330.515625h10c5.523438 0 10-4.476563 10-10s-4.476562-10-10-10h-10c-5.523438 0-10 4.476563-10 10s4.476562 10 10 10zm0 0"/><path d="m474 236c-2.628906 0-5.210938 1.070312-7.070312 2.929688-1.859376 1.859374-2.929688 4.441406-2.929688 7.070312s1.070312 5.210938 2.929688 7.070312c1.859374 1.859376 4.441406 2.929688 7.070312 2.929688s5.210938-1.070312 7.070312-2.929688c1.859376-1.859374 2.929688-4.441406 2.929688-7.070312s-1.070312-5.210938-2.929688-7.070312c-1.859374-1.859376-4.441406-2.929688-7.070312-2.929688zm0 0"/></svg>