<svg height="512pt" viewBox="0 0 512.001 512" width="512pt" xmlns="http://www.w3.org/2000/svg"><path d="m494.910156 283.152344c2.859375 2.871094 7.160156 3.734375 10.90625 2.191406 3.742188-1.546875 6.183594-5.195312 6.183594-9.246094v-61.234375c0-5.523437-4.476562-10-10-10h-61.167969c-4.042969 0-7.691406 2.4375-9.238281 6.171875-1.546875 3.738282-.691406 8.039063 2.167969 10.898438l11.746093 11.742187-60.867187 60.867188-53.410156-53.40625c-3.90625-3.902344-10.234375-3.902344-14.140625 0-3.90625 3.90625-3.90625 10.238281 0 14.144531l53.40625 53.40625-14.140625 14.140625-143.300781-143.300781c-3.902344-3.902344-10.234376-3.902344-14.140626 0l-71.773437 71.769531-107.140625-107.140625v-28.285156l100.070312 100.074218c1.953126 1.953126 4.511719 2.929688 7.070313 2.929688s5.121094-.976562 7.074219-2.929688l71.769531-71.769531 47.632813 47.632813c3.90625 3.90625 10.234374 3.90625 14.144531 0 3.902343-3.90625 3.902343-10.238282 0-14.144532l-54.707031-54.703124c-3.902344-3.90625-10.234376-3.90625-14.140626 0l-71.773437 71.769531-107.140625-107.144531v-77.585938c0-5.523438-4.476562-10-10-10s-10 4.476562-10 10v492c0 5.523438 4.476562 10 10 10h492c5.523438 0 10-4.476562 10-10s-4.476562-10-10-10h-467.855469l111.1875-111.191406 50.84375 50.847656c3.90625 3.90625 10.238281 3.90625 14.144531 0l52.386719-52.386719 53.957031 53.957031c1.878907 1.875 4.421876 2.929688 7.074219 2.929688 2.652344 0 5.195313-1.054688 7.070313-2.929688l53.832031-53.828124 58.929687 58.929687-9.816406 9.816406c-2.859375 2.859375-3.714844 7.164063-2.164062 10.902344 1.550781 3.734375 5.191406 6.167969 9.234375 6.167969h.011719l61.175781-.0625c5.519531-.007813 9.988281-4.480469 9.988281-10v-61.175782c0-4.046874-2.4375-7.695312-6.179688-9.242187-3.742187-1.542969-8.046874-.683594-10.90625 2.183594l-8.929687 8.96875-58.917969-58.917969 60.847656-60.847656zm-374.839844-10.640625c3.90625 3.90625 10.234376 3.90625 14.144532 0l71.769531-71.769531 136.230469 136.230468-18.476563 18.476563-53.960937-53.960938c-3.902344-3.902343-10.234375-3.902343-14.140625 0l-52.390625 52.386719-50.84375-50.84375c-1.875-1.875-4.417969-2.929688-7.070313-2.929688-2.652343 0-5.195312 1.054688-7.070312 2.929688l-118.261719 118.257812v-248.847656zm358.855469 144.605469c1.875 1.875 4.417969 2.929687 7.070313 2.929687h.011718c2.171876-.003906 4.273438-.714844 5.992188-2.003906v27.121093l-27.015625.027344c3.703125-3.917968 3.632813-10.097656-.203125-13.933594l-66-66 14.140625-14.144531zm-155.191406-5.101563-53.957031-53.957031c-3.90625-3.90625-10.238282-3.90625-14.144532 0l-52.386718 52.386718-50.84375-50.847656c-1.875-1.875-4.417969-2.929687-7.070313-2.929687-2.652343 0-5.195312 1.054687-7.070312 2.929687l-118.261719 118.261719v-28.285156l125.332031-125.332031 50.84375 50.84375c3.90625 3.90625 10.238281 3.90625 14.144531 0l52.386719-52.386719 53.957031 53.960937c1.878907 1.875 4.421876 2.929688 7.074219 2.929688 2.652344 0 5.195313-1.054688 7.070313-2.929688l135.910156-135.910156c1.875-1.875 2.929688-4.417969 2.929688-7.070312 0-2.652344-1.054688-5.195313-2.929688-7.070313l-1.742188-1.746094h27.023438v27.964844c-1.265625-.5625-2.644531-.863281-4.054688-.867187-.003906 0-.007812 0-.011718 0-2.652344 0-5.195313 1.054687-7.074219 2.929687zm0 0"/><path d="m364 120.554688c-5.484375 0-9.949219-3.636719-9.949219-8.105469 0-5.523438-4.476562-10-10-10-5.519531 0-10 4.476562-10 10 0 12.222656 8.359375 22.640625 19.992188 26.503906.441406 5.117187 4.726562 9.132813 9.957031 9.132813s9.515625-4.015626 9.957031-9.132813c11.632813-3.863281 19.992188-14.28125 19.992188-26.503906 0-15.496094-13.4375-28.101563-29.949219-28.101563-5.484375 0-9.949219-3.636718-9.949219-8.105468s4.464844-8.105469 9.949219-8.105469 9.949219 3.636719 9.949219 8.105469c0 5.523437 4.476562 10 10 10 5.519531 0 10-4.476563 10-10 0-12.207032-8.34375-22.621094-19.957031-26.488282-.089844-5.449218-4.523438-9.839844-9.992188-9.839844s-9.90625 4.390626-9.992188 9.839844c-11.617187 3.871094-19.957031 14.28125-19.957031 26.488282 0 15.496093 13.433594 28.105468 29.945313 28.105468 5.488281 0 9.949218 3.632813 9.949218 8.101563.003907 4.46875-4.460937 8.105469-9.945312 8.105469zm0 0"/><path d="m364 188c51.832031 0 94-42.167969 94-94s-42.167969-94-94-94-94 42.167969-94 94 42.167969 94 94 94zm0-168c40.804688 0 74 33.195312 74 74s-33.195312 74-74 74-74-33.195312-74-74 33.195312-74 74-74zm0 0"/><path d="m285.398438 209.449219c-1.859376 1.859375-2.917969 4.441406-2.917969 7.070312 0 2.640625 1.058593 5.210938 2.917969 7.070313 1.859374 1.871094 4.441406 2.929687 7.082031 2.929687 2.628906 0 5.199219-1.058593 7.070312-2.929687 1.859375-1.859375 2.917969-4.429688 2.917969-7.070313 0-2.628906-1.058594-5.210937-2.917969-7.070312-1.871093-1.859375-4.441406-2.929688-7.070312-2.929688-2.640625 0-5.210938 1.070313-7.082031 2.929688zm0 0"/></svg>