<svg height="512pt" viewBox="-75 0 511 512" width="512pt" xmlns="http://www.w3.org/2000/svg"><path d="m52.5 84c17.644531 0 32-14.355469 32-32v-20c0-17.644531-14.355469-32-32-32s-32 14.355469-32 32v20c0 17.644531 14.355469 32 32 32zm-12-52c0-6.617188 5.382812-12 12-12s12 5.382812 12 12v20c0 6.617188-5.382812 12-12 12s-12-5.382812-12-12zm0 0"/><path d="m114.5 84c5.523438 0 10-4.476562 10-10v-64c0-5.523438-4.476562-10-10-10s-10 4.476562-10 10v64c0 5.523438 4.476562 10 10 10zm0 0"/><path d="m176.5 84c17.644531 0 32-14.355469 32-32v-20c0-17.644531-14.355469-32-32-32s-32 14.355469-32 32v20c0 17.644531 14.355469 32 32 32zm-12-52c0-6.617188 5.382812-12 12-12s12 5.382812 12 12v20c0 6.617188-5.382812 12-12 12s-12-5.382812-12-12zm0 0"/><path d="m238.5 84c5.523438 0 10-4.476562 10-10v-64c0-5.523438-4.476562-10-10-10s-10 4.476562-10 10v64c0 5.523438 4.476562 10 10 10zm0 0"/><path d="m300.5 84c17.644531 0 32-14.355469 32-32v-20c0-17.644531-14.355469-32-32-32s-32 14.355469-32 32v20c0 17.644531 14.355469 32 32 32zm-12-52c0-6.617188 5.382812-12 12-12s12 5.382812 12 12v20c0 6.617188-5.382812 12-12 12s-12-5.382812-12-12zm0 0"/><path d="m350.5 152.054688h-14v-38c0-5.523438-4.476562-10-10-10s-10 4.476562-10 10v38h-20v-16c0-17.648438-14.355469-32-32-32s-32 14.351562-32 32v16h-20v-38c0-5.523438-4.476562-10-10-10s-10 4.476562-10 10v38h-20v-38c0-5.523438-4.476562-10-10-10s-10 4.476562-10 10v38h-20v-16c0-17.648438-14.355469-32-32-32s-32 14.351562-32 32v16h-24v-38c0-5.523438-4.476562-10-10-10s-10 4.476562-10 10v38h-14c-5.523438 0-10 4.476562-10 10v48c0 5.519531 4.476562 10 10 10v39.671874c0 2.664063 1.0625 5.214844 2.949219 7.09375l103.675781 103.039063v132.140625c0 3.472656 1.804688 6.699219 4.761719 8.519531 1.601562.984375 3.417969 1.480469 5.238281 1.480469 1.542969 0 3.089844-.355469 4.511719-1.074219l106.8125-54c3.367187-1.703125 5.488281-5.152343 5.488281-8.925781v-78.203125l103.613281-102.976563c1.886719-1.878906 2.949219-4.429687 2.949219-7.09375v-39.671874c5.523438 0 10-4.480469 10-10v-48c0-5.523438-4.476562-10-10-10zm-98-16c0-6.617188 5.382812-12 12-12s12 5.382812 12 12v16h-24zm-164 0c0-6.617188 5.382812-12 12-12s12 5.382812 12 12v16h-24zm242 119.511718-103.613281 102.980469c-1.886719 1.875-2.949219 4.429687-2.949219 7.089844v76.214843l-86.8125 43.886719v-120.070312c0-2.9375-1.273438-5.574219-3.300781-7.40625l-103.324219-102.695313v-35.515625h105.125c5.523438 0 10-4.476562 10-10 0-5.523437-4.476562-10-10-10h-115.113281c-.003907 0-.007813 0-.011719 0v-28h320v28c-.003906 0-.007812 0-.011719 0h-114.863281c-5.523438 0-10 4.476563-10 10 0 5.523438 4.476562 10 10 10h104.875zm0 0"/><path d="m180.5 200.050781c-2.628906 0-5.210938 1.070313-7.070312 2.929688-1.859376 1.859375-2.929688 4.441406-2.929688 7.070312 0 2.628907 1.070312 5.210938 2.929688 7.070313 1.859374 1.859375 4.441406 2.929687 7.070312 2.929687s5.210938-1.070312 7.070312-2.929687c1.859376-1.859375 2.929688-4.429688 2.929688-7.070313 0-2.628906-1.070312-5.210937-2.929688-7.070312-1.859374-1.859375-4.441406-2.929688-7.070312-2.929688zm0 0"/></svg>