<svg height="512pt" viewBox="0 0 512 512" width="512pt" xmlns="http://www.w3.org/2000/svg"><path d="m510.613281 187.207031c-2.761719-10.304687-9.347656-18.925781-18.546875-24.308593l6.003906-10.394532c5.511719-9.550781 2.226563-21.804687-7.320312-27.320312l-38.105469-22c-4.625-2.667969-10.015625-3.378906-15.175781-1.996094s-9.472656 4.691406-12.144531 9.320312l-21.996094 38.101563h-.003906l-7.339844 12.714844v-56.828125c0-2.652344-1.050781-5.195313-2.925781-7.070313l-94.5-94.496093c-1.871094-1.875-4.417969-2.929688-7.070313-2.929688h-261.488281c-16.542969 0-30 13.457031-30 30v181.121094c0 5.519531 4.476562 10 10 10s10-4.480469 10-10v-181.121094c0-5.515625 4.484375-10 10-10h251.488281v64.496094c0 16.542968 13.460938 30 30 30h64.5v81.46875l-115.492187 200.03125c-.742188 1.285156-1.1875 2.722656-1.304688 4.199218l-5.773437 72.0625-11.390625 19.726563h-212.027344c-5.515625 0-10-4.488281-10-10v-180.867187c0-5.523438-4.476562-10-10-10s-10 4.476562-10 10v180.867187c0 16.539063 13.457031 29.996094 30 29.996094h335.988281c16.539063 0 29.996094-13.457031 29.996094-29.996094v-152.667969l86.078125-149.089844c4.574219 2.710938 7.851562 7.011719 9.230469 12.15625 1.398437 5.222657.683593 10.675782-2.019531 15.355469l-53.714844 93.035157c-2.761719 4.78125-1.121094 10.898437 3.660156 13.660156 1.574219.910156 3.292969 1.339844 4.992188 1.339844 3.457031 0 6.816406-1.792969 8.667968-5l53.714844-93.035157c5.371094-9.304687 6.800781-20.148437 4.019531-30.53125zm-199.125-92.710937c-5.511719 0-10-4.484375-10-10v-50.355469l60.355469 60.355469zm131.15625 26.007812 38.109375 21.988282s0 .003906-.003906.011718l-10.996094 19.050782h-.003906v.003906l-6 10.390625-38.105469-22zm-121.722656 298.832032-38.105469-22 132.828125-230.066407 38.105469 21.996094zm-43.058594-1.769532 28.015625 16.175782-31.027344 21.386718zm98.125 64.417969c0 5.511719-4.488281 10-10 10h-100.867187l5.617187-9.726563 59.519531-41.03125c1.222657-.84375 2.242188-1.945312 2.984376-3.234374l42.746093-74.035157zm0 0"/><path d="m63.996094 322.117188h91c5.519531 0 10-4.480469 10-10 0-5.523438-4.480469-10-10-10h-91c-5.519532 0-9.996094 4.476562-9.996094 10 0 5.519531 4.476562 10 9.996094 10zm0 0"/><path d="m63.996094 378.113281h91c5.519531 0 10-4.476562 10-10 0-5.519531-4.480469-10-10-10h-91c-5.519532 0-9.996094 4.480469-9.996094 10 0 5.523438 4.476562 10 9.996094 10zm0 0"/><path d="m213.492188 358.113281h-13.5c-5.523438 0-10 4.480469-10 10 0 5.523438 4.476562 10 10 10h13.5c5.523437 0 10-4.476562 10-10 0-5.519531-4.476563-10-10-10zm0 0"/><path d="m213.492188 302.117188h-13.5c-5.523438 0-10 4.476562-10 10 0 5.519531 4.476562 10 10 10h13.5c5.523437 0 10-4.480469 10-10 0-5.523438-4.476563-10-10-10zm0 0"/><path d="m175.992188 102.125h-55.996094c-5.523438 0-10 4.476562-10 10v53.996094h-46c-5.519532 0-9.996094 4.476562-9.996094 10v79.996094c0 5.523437 4.476562 10 9.996094 10h223.992187c5.523438 0 10-4.476563 10-10v-111.621094c0-5.523438-4.476562-10-10-10h-55.996093c-5.523438 0-10 4.476562-10 10v43.496094h-36v-75.867188c0-5.523438-4.476563-10-10-10zm-101.996094 83.996094h36v59.996094h-36zm56-10v-54h36v123.996094h-36zm111.996094-21.625h35.996093v91.621094h-35.996093zm-20 53.496094v38.125h-36v-38.125zm0 0"/><path d="m10 266.121094c2.628906 0 5.210938-1.070313 7.070312-2.929688 1.859376-1.859375 2.929688-4.441406 2.929688-7.070312s-1.070312-5.210938-2.929688-7.070313c-1.859374-1.871093-4.441406-2.929687-7.070312-2.929687s-5.210938 1.058594-7.070312 2.929687c-1.859376 1.859375-2.929688 4.441407-2.929688 7.070313s1.070312 5.210937 2.929688 7.070312c1.859374 1.859375 4.441406 2.929688 7.070312 2.929688zm0 0"/></svg>