<svg height="512pt" viewBox="0 0 512 512" width="512pt" xmlns="http://www.w3.org/2000/svg"><path d="m115.714844 69.507812c-26.191406 0-47.492188 21.304688-47.492188 47.492188s21.304688 47.492188 47.492188 47.492188c26.183594 0 47.492187-21.304688 47.492187-47.492188s-21.304687-47.492188-47.492187-47.492188zm0 74.984376c-15.160156 0-27.492188-12.332032-27.492188-27.492188s12.332032-27.492188 27.492188-27.492188c15.15625 0 27.492187 12.332032 27.492187 27.492188s-12.335937 27.492188-27.492187 27.492188zm0 0"/><path d="m499.699219 213.761719c-16.375-16.375-43.019531-16.375-59.398438 0-13.9375 13.9375-16.003906 35.3125-6.210937 51.46875l-20.089844 20.085937v-215.316406c0-16.542969-13.457031-30-30-30h-177.644531l-2.367188-4.101562c-1.324219-2.296876-3.507812-3.972657-6.070312-4.660157-2.5625-.683593-5.292969-.324219-7.589844 1l-17.953125 10.367188c-6.339844-4.84375-13.222656-8.824219-20.5625-11.890625v-20.714844c0-5.523438-4.476562-10-10-10h-52.195312c-5.523438 0-10 4.476562-10 10v20.714844c-7.34375 3.066406-14.222657 7.042968-20.5625 11.890625l-17.957032-10.367188c-4.78125-2.761719-10.898437-1.125-13.660156 3.660157l-26.097656 45.203124c-1.324219 2.296876-1.6875 5.027344-1 7.585938.6875 2.5625 2.363281 4.746094 4.660156 6.074219l17.953125 10.363281c-.5 3.933594-.753906 7.90625-.753906 11.875s.253906 7.941406.753906 11.875l-17.953125 10.363281c-2.296875 1.328125-3.972656 3.511719-4.660156 6.074219-.6875 2.558594-.324219 5.289062 1 7.585938l26.097656 45.203124c2.761719 4.78125 8.878906 6.421876 13.660156 3.660157l17.957032-10.367188c6.339843 4.847657 13.21875 8.824219 20.5625 11.890625v20.714844c0 5.523438 4.476562 10 10 10h52.195312c5.523438 0 10-4.476562 10-10v-20.714844c7.339844-3.066406 14.222656-7.042968 20.5625-11.890625l17.953125 10.367188c2.300781 1.324219 5.027344 1.683593 7.589844 1 2.5625-.6875 4.746093-2.363281 6.070312-4.660157l26.097657-45.203124c2.761718-4.78125 1.125-10.898438-3.660157-13.660157l-17.949219-10.363281c.203126-1.617188.359376-3.246094.476563-4.875h185.046875v165.699219c-3.488281-.925781-7.121094-1.414063-10.828125-1.414063-7.804687 0-15.28125 2.121094-21.78125 6.078125l-29.132813-29.132812c9.789063-16.15625 7.722657-37.53125-6.214843-51.46875-16.375-16.375-43.019531-16.375-59.398438 0-13.9375 13.9375-16.003906 35.3125-6.210937 51.46875l-29.132813 29.132812c-6.5-3.957031-13.980469-6.078125-21.78125-6.078125-11.21875 0-21.765625 4.371094-29.699219 12.304688-16.375 16.375-16.375 43.019531 0 59.394531 7.933594 7.933594 18.480469 12.300781 29.699219 12.300781 11.214844 0 21.765625-4.367187 29.699219-12.300781 13.9375-13.9375 16.003906-35.3125 6.210938-51.46875l29.144531-29.144531c6.667969 4.039062 14.214843 6.066406 21.773437 6.066406 7.554688 0 15.101563-2.027344 21.769532-6.066406l29.144531 29.144531c-9.789063 16.15625-7.726563 37.53125 6.214843 51.46875 7.929688 7.933594 18.476563 12.300781 29.699219 12.300781 3.707031 0 7.335938-.484375 10.828125-1.410156v41.125h-276v-98c0-5.523438-4.480468-10-10-10-5.523437 0-10 4.476562-10 10v168c0 16.542969 13.457032 30 30 30h256c16.539063 0 30-13.457031 30-30v-123.199219c7.210938-7.785156 11.171875-17.84375 11.171875-28.511719 0-7.804687-2.121093-15.28125-6.078125-21.78125l29.132813-29.136718c6.667969 4.039062 14.214843 6.070312 21.773437 6.070312 10.753906 0 21.507813-4.09375 29.695313-12.28125 16.375-16.378906 16.375-43.023437 0-59.398437zm-308.03125-34.320313-15.304688-8.835937c-3.742187-2.164063-8.449219-1.675781-11.667969 1.203125-7.609374 6.808594-16.363281 11.867187-26.007812 15.039062-4.101562 1.347656-6.875 5.179688-6.875 9.5v17.652344h-32.195312v-17.652344c0-4.320312-2.773438-8.152344-6.878907-9.5-9.644531-3.171875-18.394531-8.230468-26.007812-15.039062-3.21875-2.878906-7.921875-3.367188-11.664063-1.207032l-15.308594 8.839844-16.097656-27.882812 15.289063-8.828125c3.738281-2.15625 5.667969-6.46875 4.792969-10.691407-1.023438-4.921874-1.542969-9.980468-1.542969-15.039062s.519531-10.117188 1.542969-15.039062c.875-4.222657-1.054688-8.535157-4.792969-10.691407l-15.289063-8.828125 16.097656-27.882812 15.308594 8.835937c3.738282 2.160157 8.445313 1.671875 11.664063-1.207031 7.613281-6.804688 16.363281-11.867188 26.007812-15.035156 4.105469-1.347656 6.878907-5.179688 6.878907-9.5v-17.652344h32.195312v17.652344c0 4.320312 2.773438 8.152344 6.875 9.5 9.644531 3.171875 18.398438 8.230468 26.007812 15.039062 3.21875 2.878906 7.925782 3.367188 11.667969 1.207032l15.304688-8.839844 16.097656 27.882812-15.289063 8.828125c-3.738281 2.160157-5.667968 6.46875-4.792968 10.695313 1.023437 4.917968 1.542968 9.976562 1.542968 15.035156s-.519531 10.121094-1.542968 15.039062c-.875 4.222657 1.054687 8.535157 4.792968 10.691407l15.289063 8.828125zm18.757812-75.441406 16-9.238281c4.785157-2.761719 6.421875-8.878907 3.660157-13.660157l-12.183594-21.101562h166.097656c5.515625 0 10 4.484375 10 10v34zm14.648438 241.84375c-4.15625 4.15625-9.679688 6.445312-15.554688 6.445312-5.878906 0-11.402343-2.289062-15.558593-6.445312-8.578126-8.578125-8.578126-22.535156 0-31.113281 4.15625-4.152344 9.679687-6.441407 15.558593-6.441407 5.875 0 11.398438 2.289063 15.554688 6.441407 8.578125 8.578125 8.578125 22.535156 0 31.113281zm56.6875-85.949219c-.265625-.34375-.542969-.675781-.859375-.992187-.3125-.3125-.648438-.59375-.992188-.855469-7.664062-8.632813-7.386718-21.875.875-30.144531 4.292969-4.289063 9.925782-6.433594 15.558594-6.433594s11.269531 2.144531 15.554688 6.433594c8.578124 8.578125 8.578124 22.535156 0 31.113281-8.261719 8.265625-21.507813 8.542969-30.136719.878906zm85.855469 85.949219c-8.578126-8.578125-8.578126-22.535156 0-31.113281 4.152343-4.152344 9.679687-6.441407 15.554687-6.441407s11.402344 2.289063 15.554687 6.441407c4.15625 4.15625 6.445313 9.679687 6.445313 15.558593 0 5.875-2.289063 11.398438-6.445313 15.554688-4.152343 4.15625-9.679687 6.445312-15.554687 6.445312s-11.402344-2.289062-15.554687-6.445312zm16.382812 146.15625h-256c-5.515625 0-10-4.484375-10-10v-50h276v50c0 5.515625-4.484375 10-10 10zm101.558594-232.984375c-8.578125 8.578125-22.539063 8.578125-31.113282 0-8.578124-8.578125-8.578124-22.535156 0-31.113281 8.574219-8.578125 22.535157-8.578125 31.109376 0 8.578124 8.578125 8.578124 22.535156.003906 31.113281zm0 0"/><path d="m256 452c-2.628906 0-5.210938 1.070312-7.070312 2.929688-1.859376 1.859374-2.929688 4.441406-2.929688 7.070312s1.070312 5.210938 2.929688 7.070312c1.859374 1.859376 4.441406 2.929688 7.070312 2.929688s5.210938-1.070312 7.070312-2.929688c1.859376-1.859374 2.929688-4.441406 2.929688-7.070312s-1.070312-5.210938-2.929688-7.070312c-1.859374-1.859376-4.441406-2.929688-7.070312-2.929688zm0 0"/><path d="m108 279c2.628906 0 5.210938-1.070312 7.070312-2.929688 1.859376-1.859374 2.929688-4.441406 2.929688-7.070312s-1.070312-5.210938-2.929688-7.070312c-1.859374-1.859376-4.429687-2.929688-7.070312-2.929688-2.628906 0-5.210938 1.070312-7.070312 2.929688-1.859376 1.859374-2.929688 4.441406-2.929688 7.070312s1.070312 5.210938 2.929688 7.070312c1.859374 1.859376 4.441406 2.929688 7.070312 2.929688zm0 0"/></svg>