<svg height="512pt" viewBox="0 0 512 512" width="512pt" xmlns="http://www.w3.org/2000/svg"><path d="m133 65c2.628906 0 5.210938-1.070312 7.070312-2.929688 1.859376-1.859374 2.929688-4.441406 2.929688-7.070312s-1.070312-5.210938-2.929688-7.070312c-1.859374-1.859376-4.441406-2.929688-7.070312-2.929688s-5.210938 1.070312-7.070312 2.929688c-1.859376 1.859374-2.929688 4.441406-2.929688 7.070312s1.070312 5.210938 2.929688 7.070312c1.859374 1.859376 4.441406 2.929688 7.070312 2.929688zm0 0"/><path d="m502 0h-492c-5.523438 0-10 4.476562-10 10v492c0 5.523438 4.476562 10 10 10h492c5.523438 0 10-4.476562 10-10v-492c0-5.523438-4.476562-10-10-10zm-86.164062 143 5.96875 5.96875-32.804688 32.804688v-38.773438zm27.183593-1.101562-5.398437-5.394532 50.191406-13.449218-13.449219 50.1875-3.0625-3.0625c-3.902343-3.902344-10.234375-3.902344-14.140625 0l-75.820312 75.820312h-3.683594l-52.566406-52.570312c-3.90625-3.90625-10.238282-3.90625-14.144532 0l-146.011718 146.011718-54.449219-54.445312c-1.875-1.875-4.417969-2.929688-7.070313-2.929688-2.652343 0-5.195312 1.054688-7.070312 2.929688l-76.34375 76.347656v-28.285156l83.414062-83.417969 54.445313 54.449219c3.90625 3.902344 10.238281 3.902344 14.144531 0l146.015625-146.015625 54.410157 54.410156c3.90625 3.90625 10.238281 3.90625 14.140624 0l56.449219-56.445313c3.902344-3.902343 3.902344-10.234374 0-14.140624zm-93.644531 104.101562h-62.714844l31.355469-31.355469zm-329.375 20h38.773438l-38.773438 38.773438zm128.058594 0h33.75l-16.875 16.875zm220.941406-85.226562-37.773438-37.773438h37.773438zm-103-57.773438v-103h103v103zm38.808594 20-38.808594 38.808594v-38.808594zm-58.808594 58.808594-44.191406 44.191406h-58.808594v-103h103zm-123 39.132812-12.515625-12.511718c-1.875-1.875-4.417969-2.929688-7.070313-2.929688-2.652343 0-5.195312 1.054688-7.070312 2.929688l-17.722656 17.722656c-.550782-.09375-1.113282-.152344-1.6875-.152344h-56.933594v-103h103zm-19.585938 65.269532 19.585938 19.585937v43.203125h-82.371094zm39.585938 39.585937 14.859375 14.859375c3.90625 3.90625 10.238281 3.90625 14.144531 0l73.996094-73.996094v82.339844h-103zm103 43.203125v103h-103v-103zm20 0h103v103h-103zm0-20v-102.339844l.660156-.660156h102.339844v103zm123-102.375.625-.625h102.375v103h-103zm103-20.625h-82.375l54.605469-54.605469 8.238281 8.242188c2.523438 2.523437 6.207031 3.511719 9.660156 2.585937 3.449219-.925781 6.144532-3.621094 7.070313-7.070312l2.800781-10.453125zm0-144.773438-76.285156 20.441407c-1.054688.28125-2.027344.746093-2.914063 1.332031h-23.800781v-103h103zm-246-81.226562v103h-103v-23c0-5.523438-4.476562-10-10-10s-10 4.476562-10 10v23h-103v-103zm-226 369h103v103h-103zm369 103v-103h103v103zm0 0"/></svg>