<svg height="512pt" viewBox="0 -62 512 512" width="512pt" xmlns="http://www.w3.org/2000/svg"><path d="m502 304h-10v-262c0-23.160156-18.839844-42-42-42h-388c-23.160156 0-42 18.839844-42 42v262h-10c-5.523438 0-10 4.476562-10 10v8c0 36.394531 29.605469 66 66 66h380c36.394531 0 66-29.605469 66-66v-8c0-5.523438-4.476562-10-10-10zm-190.800781 0v-164.929688c3.675781-1.132812 7.085937-2.875 10.113281-5.105468l40.246094 40.242187c-2.523438 4.75-3.960938 10.160157-3.960938 15.898438 0 15.269531 10.121094 28.21875 24 32.5v81.394531zm-90.398438 0v-81.394531c13.882813-4.28125 24-17.230469 24-32.5 0-5.460938-1.304687-10.625-3.601562-15.203125l40.5-40.5c2.875 2.019531 6.070312 3.609375 9.5 4.667968v164.929688zm-10-127.894531c7.71875 0 14 6.28125 14 14s-6.28125 14-14 14c-7.722656 0-14-6.28125-14-14s6.277344-14 14-14zm90.398438-55.53125c-7.71875 0-14-6.28125-14-14 0-7.722657 6.28125-14 14-14 7.722656 0 14 6.277343 14 14 0 7.71875-6.277344 14-14 14zm104.402343 69.53125c0 7.71875-6.28125 14-14 14-7.722656 0-14-6.28125-14-14s6.277344-14 14-14c7.71875 0 14 6.28125 14 14zm-4 32.5c13.878907-4.28125 24-17.230469 24-32.5 0-5.738281-1.4375-11.148438-3.960937-15.898438l50.359375-50.359375v180.152344h-70.398438zm-339.601562-202.605469h388c12.132812 0 22 9.867188 22 22v53.5625l-64.5 64.503906c-4.75-2.523437-10.160156-3.960937-15.898438-3.960937-5.742187 0-11.152343 1.4375-15.902343 3.960937l-42.375-42.378906c1.210937-3.484375 1.875-7.222656 1.875-11.113281 0-18.75-15.25-34-34-34-18.746094 0-34 15.25-34 34 0 4.179687.765625 8.1875 2.152343 11.890625l-41.972656 41.972656c-4.910156-2.753906-10.5625-4.332031-16.578125-4.332031-5.96875 0-11.582031 1.550781-16.460937 4.265625l-42.039063-42.039063c1.355469-3.667969 2.097657-7.628906 2.097657-11.757812 0-18.75-15.25-34-34-34-18.746094 0-34 15.25-34 34 0 3.652343.585937 7.167969 1.65625 10.464843l-48.054688 48.058594v-123.097656c0-12.132812 9.867188-22 22-22zm44.398438 86.574219c0-7.722657 6.28125-14 14-14 7.722656 0 14 6.277343 14 14 0 7.71875-6.277344 14-14 14-7.71875 0-14-6.28125-14-14zm-66.398438 86.808593 59.792969-59.792968c3.148437 2.410156 6.730469 4.285156 10.605469 5.480468v84.570313c0 5.519531 4.480468 10 10 10 5.523437 0 10-4.480469 10-10v-84.570313c3.472656-1.070312 6.707031-2.691406 9.609374-4.746093l40.457032 40.457031c-2.335938 4.609375-3.664063 9.8125-3.664063 15.324219 0 15.269531 10.117188 28.21875 24 32.496093v81.398438h-160.800781zm406 174.617188h-380c-24.695312 0-44.90625-19.558594-45.957031-44h471.914062c-1.050781 24.441406-21.261719 44-45.957031 44zm0 0"/><path d="m120.398438 258.640625c-2.628907 0-5.207032 1.070313-7.070313 2.929687-1.859375 1.859376-2.929687 4.441407-2.929687 7.070313s1.070312 5.210937 2.929687 7.070313c1.863281 1.859374 4.441406 2.929687 7.070313 2.929687 2.632812 0 5.210937-1.070313 7.070312-2.929687 1.859375-1.859376 2.929688-4.441407 2.929688-7.070313s-1.070313-5.210937-2.929688-7.070313c-1.859375-1.859374-4.4375-2.929687-7.070312-2.929687zm0 0"/></svg>