<svg height="512pt" viewBox="0 -54 512.00023 512" width="512pt" xmlns="http://www.w3.org/2000/svg"><path d="m511.148438 389.960938-86.515626-195.875c-1.601562-3.621094-5.1875-5.957032-9.148437-5.957032-3.957031 0-7.546875 2.335938-9.148437 5.957032l-21.261719 48.144531-19.703125-55.90625c-1.835938-5.207031-7.550782-7.941407-12.753906-6.105469-5.210938 1.835938-7.945313 7.546875-6.109376 12.753906l26.769532 75.960938-50.824219 115.066406h-20.089844l-73.15625-165.625 63.125-179.128906 24.257813 68.828125c1.835937 5.207031 7.546875 7.941406 12.753906 6.109375 5.207031-1.835938 7.945312-7.546875 6.109375-12.757813l-33.265625-94.394531c-1.484375-4.207031-5.445312-7.03125-9.855469-7.03125-4.40625 0-8.367187 2.824219-9.851562 7.035156l-65.066407 184.636719-17.53125-39.6875c-1.601562-3.625-5.1875-5.960937-9.144531-5.960937-3.960937 0-7.546875 2.339843-9.148437 5.960937l-47.261719 106.996094-28.664063-64.894531c-1.601562-3.621094-5.1875-5.957032-9.144531-5.957032-3.960937 0-7.550781 2.335938-9.148437 5.957032l-86.519532 195.875c-1.363281 3.09375-1.074218 6.664062.769532 9.5 1.847656 2.832031 4.996094 4.539062 8.378906 4.539062h492c3.378906 0 6.53125-1.707031 8.378906-4.539062 1.847656-2.835938 2.132813-6.40625.769532-9.5zm-414.632813-167.082032 26.878906 60.851563-44.289062 100.269531h-53.757813zm86.515625 161.121094h-82.0625l89.765625-203.226562 89.765625 203.226562zm244.921875 0h-83.636719l71.167969-161.121094 71.167969 161.121094zm0 0"/><path d="m330.980469 147.199219c0 2.640625 1.070312 5.210937 2.929687 7.070312 1.859375 1.871094 4.441406 2.929688 7.070313 2.929688 2.628906 0 5.210937-1.058594 7.070312-2.929688 1.859375-1.859375 2.929688-4.4375 2.929688-7.070312 0-2.628907-1.070313-5.210938-2.929688-7.070313-1.863281-1.859375-4.441406-2.929687-7.070312-2.929687-2.628907 0-5.210938 1.070312-7.070313 2.929687s-2.929687 4.441406-2.929687 7.070313zm0 0"/></svg>