<svg height="512pt" viewBox="-8 0 512 512" width="512pt" xmlns="http://www.w3.org/2000/svg"><path d="m486.03125 0h-141.332031c-5.523438 0-10 4.476562-10 10s4.476562 10 10 10h131.332031v434c0 20.953125-17.046875 38-38 38h-330.476562c10.199218-11.054688 16.445312-25.808594 16.445312-42v-430h130.699219c5.523437 0 10-4.476562 10-10s-4.476563-10-10-10h-140.699219c-5.523438 0-10 4.476562-10 10v186.066406c-.382812-.042968-.773438-.066406-1.167969-.066406h-92.832031c-5.523438 0-10 4.476562-10 10v244c0 34.1875 27.8125 62 62 62h376.03125c31.980469 0 58-26.019531 58-58v-444c0-5.523438-4.476562-10-10-10zm-466.03125 450v-234h32v192.011719c0 5.523437 4.476562 10 10 10s10-4.476563 10-10v-192.011719h30.832031c.394531 0 .785157-.023438 1.167969-.066406v234.066406c0 23.160156-18.839844 42-42 42s-42-18.839844-42-42zm0 0"/><path d="m271.917969 286c-5.523438 0-10 4.476562-10 10v152c0 5.523438 4.476562 10 10 10h61.894531c5.523438 0 10-4.476562 10-10v-152c0-5.523438-4.476562-10-10-10zm51.894531 20v84h-41.894531v-84zm-41.894531 132v-28h41.894531v28zm0 0"/><path d="m439.917969 286h-61.894531c-5.523438 0-10 4.476562-10 10v152c0 5.523438 4.476562 10 10 10h61.894531c5.523437 0 10-4.476562 10-10v-152c0-5.523438-4.476563-10-10-10zm-10 20v36h-41.894531v-36zm-41.894531 132v-76h41.894531v76zm0 0"/><path d="m159.917969 286c-5.523438 0-10 4.476562-10 10v152c0 5.523438 4.476562 10 10 10h61.894531c5.523438 0 10-4.476562 10-10v-152c0-5.523438-4.476562-10-10-10zm51.894531 20v56h-41.894531v-56zm-41.894531 132v-56h41.894531v56zm0 0"/><path d="m449.917969 64c0-5.523438-4.476563-10-10-10h-280c-5.523438 0-10 4.476562-10 10v171.9375c0 5.523438 4.476562 10 10 10h280c5.523437 0 10-4.476562 10-10zm-20 31.816406-21.816407-21.816406h21.816407zm-204 49.453125 36 36v44.667969h-36zm56 35 36-36v81.667969h-36zm56-56 36-36v137.667969h-36zm21.984375-50.269531-88.484375 88.484375-48.929688-48.929687c-3.90625-3.90625-10.238281-3.90625-14.144531 0l-38.429688 38.429687v-77.984375zm-189.984375 106.269531 36-36v81.667969h-36zm224 45.667969v-137.835938l36 36v101.835938zm0 0"/><path d="m300.015625 20c2.628906 0 5.210937-1.070312 7.070313-2.929688 1.859374-1.859374 2.929687-4.441406 2.929687-7.070312s-1.070313-5.210938-2.929687-7.070312c-1.859376-1.859376-4.441407-2.929688-7.070313-2.929688s-5.210937 1.070312-7.070313 2.929688c-1.859374 1.859374-2.929687 4.441406-2.929687 7.070312s1.070313 5.210938 2.929687 7.070312c1.859376 1.859376 4.441407 2.929688 7.070313 2.929688zm0 0"/></svg>