<svg height="512pt" viewBox="0 0 512.00063 512" width="512pt" xmlns="http://www.w3.org/2000/svg"><path d="m502 0h-376.015625c-5.523437 0-10 4.476562-10 10v86.6875.101562 80.207032c-23.964844 8.238281-46.464844 21.894531-65.558594 40.984375-27.011719 27.015625-43.9375 61.265625-48.945312 99.042969-4.847657 36.570312 2.304687 74.367187 20.144531 106.4375 1.828125 3.285156 5.238281 5.140624 8.75 5.140624 1.644531 0 3.3125-.40625 4.851562-1.265624 4.828126-2.683594 6.5625-8.773438 3.878907-13.601563-32.863281-59.070313-22.390625-133.753906 25.464843-181.609375 59.359376-59.359375 155.945313-59.359375 215.304688 0 17.023438 17.023438 29.691406 37.722656 37.085938 60.386719h-14.9375c-2.652344 0-5.195313 1.054687-7.070313 2.929687l-8.074219 8.074219c-5.761718-18.316406-15.816406-34.949219-29.632812-48.761719-46.882813-46.882812-123.164063-46.882812-170.046875 0-46.882813 46.882813-46.882813 123.164063 0 170.046875 23.441406 23.441407 54.230469 35.160157 85.023437 35.160157 30.792969 0 61.582032-11.71875 85.027344-35.160157 13.808594-13.8125 23.867188-30.445312 29.628906-48.761719l8.074219 8.074219c1.875 1.875 4.417969 2.929688 7.070313 2.929688h14.945312c-7.394531 22.664062-20.082031 43.375-37.09375 60.386719-47.855469 47.859374-122.539062 58.328124-181.617188 25.464843-4.824218-2.691406-10.914062-.953125-13.601562 3.875-2.683594 4.828125-.945312 10.914063 3.878906 13.601563 25.519532 14.199218 54.667969 21.628906 83.941406 21.628906 7.511719 0 15.03125-.488281 22.496094-1.480469 37.78125-5.007812 72.03125-21.933593 99.046875-48.945312 20.78125-20.785157 35.871094-46.453125 43.863281-74.53125h51.304688c4.046875 0 7.691406-2.4375 9.238281-6.175781 1.546875-3.734376.691407-8.035157-2.167969-10.898438l-30.191406-30.191406 30.191406-30.1875c2.859376-2.863282 3.714844-7.164063 2.167969-10.898438-1.546875-3.738281-5.191406-6.175781-9.238281-6.175781h-51.316406c-1.992188-6.996094-4.421875-13.84375-7.273438-20.503906h171.402344c5.523438 0 10-4.476563 10-10v-252.011719c0-5.523438-4.480469-10-10-10zm-258.898438 410.660156c-39.082031 39.082032-102.675781 39.082032-141.761718 0-39.082032-39.085937-39.082032-102.679687 0-141.761718 39.082031-39.082032 102.679687-39.085938 141.761718 0 14.078126 14.078124 23.492188 31.652343 27.378907 51.011718l-9.863281 9.867188h-21.359376c-2.101562-14.304688-8.707031-27.507813-19.117187-37.917969-12.800781-12.796875-29.816406-19.847656-47.917969-19.847656-18.101562 0-35.121094 7.050781-47.917968 19.847656-12.800782 12.800781-19.851563 29.816406-19.851563 47.917969 0 18.101562 7.050781 35.121094 19.851563 47.917968 12.796874 12.800782 29.816406 19.851563 47.917968 19.851563 18.101563 0 35.117188-7.050781 47.917969-19.851563 10.410156-10.410156 17.015625-23.609374 19.117187-37.917968h21.359376l9.863281 9.867187c-3.886719 19.363281-13.300781 36.9375-27.378907 51.015625zm-43.5-86.691406c-2.761718-4.78125-8.875-6.421875-13.660156-3.660156l-18.71875 10.808594c-3.09375 1.785156-5 5.089843-5 8.660156 0 3.574218 1.90625 6.875 5 8.660156l18.71875 10.808594c1.574219.910156 3.296875 1.34375 4.992188 1.34375 3.453125 0 6.816406-1.792969 8.667968-5.003906 1.058594-1.828126 1.464844-3.851563 1.304688-5.808594h18.027344c-1.894532 8.941406-6.320313 17.160156-12.9375 23.773437-9.019532 9.023438-21.015625 13.992188-33.773438 13.992188-12.757812 0-24.753906-4.96875-33.773437-13.992188-9.023438-9.019531-13.992188-21.015625-13.992188-33.773437 0-12.757813 4.96875-24.753906 13.992188-33.773438 9.019531-9.019531 21.015625-13.992187 33.773437-13.992187 12.757813 0 24.753906 4.96875 33.773438 13.992187 6.617187 6.613282 11.042968 14.832032 12.9375 23.773438h-18.027344c.160156-1.957032-.246094-3.980469-1.304688-5.808594zm106.5625 43.070312-17.261718-17.261718h58.878906l17.261719 17.261718zm41.617188-37.261718h-58.878906l17.261718-17.261719h58.878907zm144.21875-148.886719-36.6875-39.367187c-3.503906-3.761719-9.289062-4.253907-13.375-1.136719l-49.363281 37.605469-86.234375-78.796876 21.890625-21.8125 53.191406 53.195313c2.222656 2.21875 5.363281 3.265625 8.464844 2.828125 3.113281-.4375 5.835937-2.3125 7.355469-5.058594l50.933593-92.019531 43.820313 76.019531v68.542969zm0-108.585937-30.15625-52.304688h30.15625zm-57.648438-52.304688-48.175781 87.042969-50.863281-50.863281c-3.898438-3.898438-10.222656-3.90625-14.128906-.011719l-29.625 29.523437-47.140625-43.074218c-2.871094-2.625-7.011719-3.347657-10.605469-1.839844l-97.828125 40.960937v-61.738281zm-298.367187 83.421875 99.660156-41.726563 41.730469 38.128907-24.9375 24.851562-23.753906-23.449219c-3.617188-3.570312-9.332032-3.859374-13.292969-.675781l-79.40625 63.847657zm184.441406 148.589844c-7.308593-12.328125-16.15625-23.773438-26.410156-34.027344-35.757813-35.761719-83.460937-52.476563-130.382813-50.152344l57.34375-46.109375 24.46875 24.152344c3.90625 3.855469 10.195313 3.84375 14.082032-.03125l32.628906-32.515625 93.09375 85.0625c3.566406 3.261719 8.957031 3.503906 12.804688.570313l48.800781-37.179688 45.144531 48.445312v41.785157zm0 0"/><path d="m57.5 444.5c-2.628906 0-5.210938 1.070312-7.070312 2.929688-1.867188 1.859374-2.929688 4.4375-2.929688 7.070312 0 2.628906 1.0625 5.210938 2.929688 7.070312 1.859374 1.867188 4.441406 2.929688 7.070312 2.929688s5.210938-1.0625 7.070312-2.929688c1.859376-1.859374 2.929688-4.441406 2.929688-7.070312 0-2.632812-1.070312-5.210938-2.929688-7.070312-1.859374-1.859376-4.441406-2.929688-7.070312-2.929688zm0 0"/></svg>