<svg height="512pt" viewBox="0 -1 512 512" width="512pt" xmlns="http://www.w3.org/2000/svg"><path d="m119.53125 139.199219c0-5.5-4.457031-9.960938-9.960938-9.960938h-55.78125c-5.5 0-9.960937 4.460938-9.960937 9.960938v55.78125c0 5.503906 4.460937 9.964843 9.960937 9.964843h55.78125c5.503907 0 9.960938-4.460937 9.960938-9.964843zm-19.921875 45.820312h-35.859375v-35.859375h35.859375zm0 0"/><path d="m153.402344 204.945312h55.78125c5.5 0 9.960937-4.460937 9.960937-9.964843v-55.78125c0-5.5-4.460937-9.960938-9.960937-9.960938h-55.78125c-5.503906 0-9.960938 4.460938-9.960938 9.960938v55.78125c0 5.503906 4.457032 9.964843 9.960938 9.964843zm9.960937-55.785156h35.859375v35.859375h-35.859375zm0 0"/><path d="m253.011719 204.945312h55.78125c5.5 0 9.960937-4.460937 9.960937-9.964843v-55.78125c0-5.5-4.460937-9.960938-9.960937-9.960938h-55.78125c-5.5 0-9.960938 4.460938-9.960938 9.960938v55.78125c0 5.503906 4.460938 9.964843 9.960938 9.964843zm9.960937-55.785156h35.859375v35.859375h-35.859375zm0 0"/><path d="m352.621094 204.945312h55.785156c5.5 0 9.960938-4.460937 9.960938-9.964843v-55.78125c0-5.5-4.460938-9.960938-9.960938-9.960938h-55.785156c-5.5 0-9.960938 4.460938-9.960938 9.960938v55.78125c0 5.503906 4.460938 9.964843 9.960938 9.964843zm9.960937-55.785156h35.863281v35.859375h-35.863281zm0 0"/><path d="m119.53125 238.8125c0-5.5-4.457031-9.960938-9.960938-9.960938h-55.78125c-5.5 0-9.960937 4.460938-9.960937 9.960938v55.78125c0 5.5 4.460937 9.960938 9.960937 9.960938h55.78125c5.503907 0 9.960938-4.460938 9.960938-9.960938zm-19.921875 45.820312h-35.859375v-35.859374h35.859375zm0 0"/><path d="m143.441406 294.59375c0 5.5 4.457032 9.960938 9.960938 9.960938h55.78125c5.5 0 9.960937-4.460938 9.960937-9.960938v-55.78125c0-5.5-4.460937-9.960938-9.960937-9.960938h-55.78125c-5.503906 0-9.960938 4.460938-9.960938 9.960938zm19.921875-45.820312h35.859375v35.859374h-35.859375zm0 0"/><path d="m243.050781 294.59375c0 5.5 4.460938 9.960938 9.960938 9.960938h55.78125c5.5 0 9.960937-4.460938 9.960937-9.960938v-55.78125c0-5.5-4.460937-9.960938-9.960937-9.960938h-55.78125c-5.5 0-9.960938 4.460938-9.960938 9.960938zm19.921875-45.820312h35.859375v35.859374h-35.859375zm0 0"/><path d="m109.570312 328.460938h-55.78125c-5.5 0-9.960937 4.460937-9.960937 9.960937v55.78125c0 5.5 4.460937 9.960937 9.960937 9.960937h55.78125c5.503907 0 9.960938-4.460937 9.960938-9.960937v-55.78125c0-5.5-4.457031-9.960937-9.960938-9.960937zm-9.960937 55.78125h-35.859375v-35.859376h35.859375zm0 0"/><path d="m219.144531 394.203125v-55.78125c0-5.5-4.460937-9.960937-9.960937-9.960937h-55.78125c-5.503906 0-9.960938 4.460937-9.960938 9.960937v55.78125c0 5.5 4.457032 9.960937 9.960938 9.960937h55.78125c5.5 0 9.960937-4.457031 9.960937-9.960937zm-19.921875-9.960937h-35.859375v-35.859376h35.859375zm0 0"/><path d="m462.195312 301.410156v-226.089844c0-18.605468-15.136718-33.738281-33.742187-33.738281h-22.078125c.015625-.246093.039062-.492187.039062-.742187 0-22.519532-18.324218-40.839844-40.84375-40.839844-22.515624 0-40.839843 18.320312-40.839843 40.839844v.742187h-52.832031c.019531-.246093.039062-.492187.039062-.742187 0-22.519532-18.320312-40.839844-40.839844-40.839844-22.519531 0-40.839844 18.320312-40.839844 40.839844v.742187h-52.832031c.015625-.246093.039063-.492187.039063-.742187 0-22.519532-18.324219-40.839844-40.84375-40.839844-22.515625 0-40.839844 18.320312-40.839844 40.839844v.742187h-22.042969c-18.601562 0-33.738281 15.132813-33.738281 33.738281v338.933594c0 18.605469 15.136719 33.738282 33.738281 33.738282h102.730469c5.5 0 9.960938-4.457032 9.960938-9.960938 0-5.5-4.460938-9.960938-9.960938-9.960938h-102.730469c-7.617187 0-13.816406-6.195312-13.816406-13.816406v-338.933594c0-7.617187 6.199219-13.816406 13.816406-13.816406h22.144531c1.414063 21.25 19.140626 38.105469 40.738282 38.105469 5.503906 0 9.960937-4.460937 9.960937-9.960937s-4.457031-9.960938-9.960937-9.960938c-10.605469 0-19.371094-7.941406-20.71875-18.183594h114.457031c1.410156 21.25 19.136719 38.105469 40.738281 38.105469 5.5 0 9.960938-4.460937 9.960938-9.960937s-4.460938-9.960938-9.960938-9.960938c-10.605468 0-19.371094-7.941406-20.71875-18.183594h114.453125c1.414063 21.25 19.140625 38.105469 40.738281 38.105469 5.503907 0 9.960938-4.460937 9.960938-9.960937s-4.457031-9.960938-9.960938-9.960938c-10.605468 0-19.371093-7.941406-20.71875-18.183594h83.601563c7.621094 0 13.816406 6.199219 13.816406 13.816406v213.464844c-7.5625-3.863281-15.566406-6.984375-23.90625-9.285156v-40.6875c0-5.5-4.460937-9.960938-9.960937-9.960938h-55.78125c-5.5 0-9.960938 4.460938-9.960938 9.960938v55.78125c0 2.9375 1.28125 5.570312 3.304688 7.394531-15.097656 5.8125-28.566406 14.933594-39.511719 26.472657h-53.441406c-5.5 0-9.960938 4.460937-9.960938 9.960937v55.78125c0 5.5 4.460938 9.960937 9.960938 9.960937h23.929687c.128906 8.226563 1.1875 16.226563 3.074219 23.90625h-53.898437c-5.5 0-9.960938 4.460938-9.960938 9.960938 0 5.503906 4.460938 9.960938 9.960938 9.960938h60.941406c17.1875 36.605468 54.398437 62.015624 97.441406 62.015624 55.960938 0 102.070312-42.953124 107.113281-97.617187h10.425781c5.5 0 9.960938-4.460937 9.960938-9.960937 0-41.085938-19.539062-77.6875-49.804688-101.019532zm-117.542968-260.570312c0-11.535156 9.386718-20.917969 20.917968-20.917969 11.535157 0 20.921876 9.382813 20.921876 20.917969 0 .25.019531.496094.035156.742187h-41.875zm-134.472656 0c0-11.535156 9.382812-20.917969 20.917968-20.917969s20.917969 9.382813 20.917969 20.917969c0 .25.019531.496094.039063.742187h-41.875zm-134.476563 0c0-11.535156 9.386719-20.917969 20.917969-20.917969 11.535156 0 20.917968 9.382813 20.917968 20.917969 0 .25.023438.496094.039063.742187h-41.875zm415.917969 351.628906h-97.160156v-97.164062c51.390624 4.738281 92.421874 45.769531 97.160156 97.164062zm-129.039063-143.695312h35.863281v26.917968c-4.582031-.5-9.234374-.765625-13.945312-.765625-5.417969 0-9.8125 4.324219-9.949219 9.707031h-11.96875zm-99.609375 99.609374h28.539063c-6.355469 10.890626-10.847657 22.988282-13.046875 35.859376h-15.492188zm33.867188 54.046876c0-44.96875 34.035156-82.128907 77.695312-87.089844v87.082031c0 .332031.019532.664063.050782.992187.015624.136719.039062.265626.058593.402344.027344.1875.046875.375.085938.5625.03125.15625.074219.308594.113281.464844.039062.160156.074219.320312.125.480469.042969.152343.101562.296875.15625.445312.054688.160157.105469.316407.171875.472657.054687.136718.121094.269531.183594.402343.078125.160157.148437.324219.234375.484375.066406.125.144531.242188.214844.363282.09375.15625.183593.316406.289062.472656.085938.128906.183594.25.273438.375.101562.132812.195312.273437.304687.40625.167969.203125.347656.398437.53125.589844.042969.042968.082031.089843.125.132812l61.554687 61.554688c-14.976562 11.925781-33.921874 19.0625-54.507812 19.0625-48.335938 0-87.660156-39.324219-87.660156-87.65625zm156.253906 54.507812-44.546875-44.546875h63.039063c-1.898438 16.714844-8.519532 32.019531-18.492188 44.546875zm0 0"/><path d="m181.292969 427.011719c-2.621094 0-5.191407 1.058593-7.042969 2.917969-1.851562 1.855468-2.917969 4.414062-2.917969 7.042968 0 2.621094 1.0625 5.191406 2.917969 7.042969 1.851562 1.851563 4.421875 2.917969 7.042969 2.917969 2.617187 0 5.1875-1.066406 7.039062-2.917969 1.855469-1.851563 2.921875-4.421875 2.921875-7.042969 0-2.628906-1.066406-5.1875-2.921875-7.042968-1.851562-1.863282-4.421875-2.917969-7.039062-2.917969zm0 0"/></svg>