<svg height="512pt" viewBox="0 0 512 512" width="512pt" xmlns="http://www.w3.org/2000/svg"><path d="m24 246h-14c-5.523438 0-10 4.476562-10 10s4.476562 10 10 10h14c5.523438 0 10-4.476562 10-10s-4.476562-10-10-10zm0 0"/><path d="m24 174h-14c-5.523438 0-10 4.476562-10 10s4.476562 10 10 10h14c5.523438 0 10-4.476562 10-10s-4.476562-10-10-10zm0 0"/><path d="m24 102h-14c-5.523438 0-10 4.476562-10 10s4.476562 10 10 10h14c5.523438 0 10-4.476562 10-10s-4.476562-10-10-10zm0 0"/><path d="m24 30h-14c-5.523438 0-10 4.476562-10 10s4.476562 10 10 10h14c5.523438 0 10-4.476562 10-10s-4.476562-10-10-10zm0 0"/><path d="m24 318h-14c-5.523438 0-10 4.476562-10 10s4.476562 10 10 10h14c5.523438 0 10-4.476562 10-10s-4.476562-10-10-10zm0 0"/><path d="m24 390h-14c-5.523438 0-10 4.476562-10 10s4.476562 10 10 10h14c5.523438 0 10-4.476562 10-10s-4.476562-10-10-10zm0 0"/><path d="m24 462h-14c-5.523438 0-10 4.476562-10 10s4.476562 10 10 10h14c5.523438 0 10-4.476562 10-10s-4.476562-10-10-10zm0 0"/><path d="m502 246h-196v-37c0-5.523438-4.476562-10-10-10s-10 4.476562-10 10v37h-44v-164h44v37c0 5.523438 4.476562 10 10 10s10-4.476562 10-10v-47c0-5.523438-4.476562-10-10-10h-64c-5.523438 0-10 4.476562-10 10v51.757812h-54c-5.523438 0-10 4.480469-10 10v28.335938h-54c-5.523438 0-10 4.476562-10 10v73.90625h-20v-236c0-5.523438-4.476562-10-10-10s-10 4.476562-10 10v492c0 5.523438 4.476562 10 10 10s10-4.476562 10-10v-236h212v174c0 5.523438 4.476562 10 10 10h64c5.523438 0 10-4.476562 10-10v-51.757812h54c5.523438 0 10-4.480469 10-10v-28.335938h54c5.523438 0 10-4.476562 10-10v-73.90625h4c5.523438 0 10-4.476562 10-10s-4.476562-10-10-10zm-388-63.90625h44v63.90625h-44zm64-10v-28.335938h44v102.242188h-44zm172 257.90625h-44v-164h44zm64-61.757812h-44v-102.242188h44zm64-38.335938h-44v-63.90625h44zm0 0"/><path d="m296 154c-2.628906 0-5.210938 1.070312-7.070312 2.929688-1.859376 1.859374-2.929688 4.441406-2.929688 7.070312s1.070312 5.210938 2.929688 7.070312c1.859374 1.859376 4.441406 2.929688 7.070312 2.929688s5.210938-1.070312 7.070312-2.929688c1.859376-1.859374 2.929688-4.441406 2.929688-7.070312s-1.070312-5.210938-2.929688-7.070312c-1.859374-1.859376-4.441406-2.929688-7.070312-2.929688zm0 0"/></svg>