<svg height="512pt" viewBox="0 -62 512 512" width="512pt" xmlns="http://www.w3.org/2000/svg"><path d="m502 304h-10v-262c0-23.160156-18.839844-42-42-42h-149c-5.523438 0-10 4.476562-10 10s4.476562 10 10 10h149c12.132812 0 22 9.867188 22 22v262h-432v-262c0-12.132812 9.867188-22 22-22h148.75c5.523438 0 10-4.476562 10-10s-4.476562-10-10-10h-148.75c-23.160156 0-42 18.839844-42 42v262h-10c-5.523438 0-10 4.476562-10 10v8c0 36.394531 29.605469 66 66 66h380c36.394531 0 66-29.605469 66-66v-8c0-5.523438-4.476562-10-10-10zm-56 64h-380c-24.695312 0-44.90625-19.558594-45.957031-44h471.914062c-1.050781 24.441406-21.261719 44-45.957031 44zm0 0"/><path d="m156.070312 74c-48.519531 0-88 39.476562-88 88s39.480469 88 88 88c48.523438 0 88-39.476562 88-88s-39.472656-88-88-88zm10 20.742188c11.292969 1.671874 21.691407 6.125 30.46875 12.648437l-30.46875 30.464844zm-20 0v57.257812h-57.257812c4.371094-29.503906 27.753906-52.890625 57.257812-57.257812zm10 135.257812c-34.097656 0-62.40625-25.230469-67.257812-58h67.257812c.332032 0 .660157-.015625.988282-.050781.148437-.015625.292968-.042969.4375-.0625.179687-.023438.355468-.046875.53125-.082031.164062-.03125.328125-.078126.488281-.117188.15625-.039062.308594-.074219.460937-.121094.160157-.046875.3125-.105468.46875-.164062.152344-.050782.304688-.101563.453126-.164063.144531-.058593.285156-.132812.425781-.199219.15625-.070312.3125-.140624.460937-.222656.136719-.070312.261719-.152344.390625-.230468.152344-.089844.304688-.175782.449219-.273438.140625-.089844.269531-.195312.40625-.296875.125-.09375.257812-.183594.378906-.285156.230469-.1875.449219-.386719.660156-.59375.023438-.023438.046876-.042969.070313-.066407l47.539063-47.539062c8.410156 11.316406 13.390624 25.320312 13.390624 40.46875 0 37.496094-30.503906 68-68 68zm0 0"/><path d="m291.65625 94h142.921875c5.523437 0 10-4.476562 10-10s-4.476563-10-10-10h-142.921875c-5.523438 0-10 4.476562-10 10s4.476562 10 10 10zm0 0"/><path d="m290.578125 250h144c5.523437 0 10-4.476562 10-10v-110.589844c0-5.523437-4.476563-10-10-10h-48c-5.523437 0-10 4.476563-10 10v23.125h-38c-5.523437 0-10 4.476563-10 10v19.464844h-38c-5.523437 0-10 4.476562-10 10v48c0 5.523438 4.476563 10 10 10zm106-110.589844h28v90.589844h-28zm-48 33.125h28v57.464844h-28zm-48 29.464844h28v28h-28zm0 0"/><path d="m256 20c2.628906 0 5.210938-1.070312 7.070312-2.929688 1.859376-1.859374 2.929688-4.441406 2.929688-7.070312s-1.070312-5.210938-2.929688-7.070312c-1.859374-1.859376-4.441406-2.929688-7.070312-2.929688s-5.210938 1.070312-7.070312 2.929688c-1.859376 1.859374-2.929688 4.441406-2.929688 7.070312s1.070312 5.210938 2.929688 7.070312c1.859374 1.859376 4.441406 2.929688 7.070312 2.929688zm0 0"/></svg>