<svg height="512pt" viewBox="0 0 512 512" width="512pt" xmlns="http://www.w3.org/2000/svg"><path d="m512 502c0-5.519531-4.472656-9.996094-9.992188-10-12.769531-.007812-28.898437-7.160156-32.335937-27.296875l-28.921875-169.378906c-5.183594-30.347657-29.886719-43.929688-52.070312-43.929688-15.246094 0-31.683594 6.417969-42.15625 20.285157l-15.078126-88.300782c-3.246093-19.015625-12.332031-35.066406-26.273437-46.425781-4.28125-3.488281-10.582031-2.84375-14.070313 1.441406-3.488281 4.28125-2.84375 10.578125 1.4375 14.066407 10.136719 8.257812 16.773438 20.109374 19.191407 34.285156l44.714843 261.875c3.210938 18.792968 11.613282 33.132812 22.691407 43.378906h-103.757813c-.09375-.003906-.183594-.003906-.273437-.003906-.027344 0-.050781.003906-.078125.003906h-141.511719c11.078125-10.246094 19.480469-24.585938 22.691406-43.378906l44.714844-261.875c2.417969-14.171875 9.054687-26.027344 19.1875-34.28125 4.28125-3.488282 4.921875-9.785156 1.4375-14.066406-3.488281-4.28125-9.789063-4.925782-14.070313-1.4375-13.941406 11.355468-23.023437 27.40625-26.269531 46.417968l-33.730469 197.546875-5.941406-34.792969c-4.140625-24.25-23.882812-35.105468-41.605468-35.105468-17.730469 0-37.46875 10.855468-41.609376 35.105468l-21.753906 127.398438c-1.867187 10.929688-9.257812 16.195312-16.566406 17.859375v-481.390625c0-5.523438-4.476562-10-10-10s-10 4.476562-10 10v492c0 5.523438 4.476562 10 10 10h492c.3125 0 .574219-.015625.808594-.039062 5.144531-.414063 9.191406-4.710938 9.191406-9.960938zm-433.964844-152.5c2.328125-13.636719 13.246094-18.472656 21.890625-18.472656s19.566407 4.835937 21.894531 18.472656l15.507813 90.839844-.835937 4.914062c-5.886719 34.472656-33.492188 46.726563-55.351563 46.746094l-.324219-.007812c-.046875 0-.09375.007812-.140625.007812h-29.796875c2.527344-4.296875 4.414063-9.3125 5.402344-15.101562zm298.125 95.753906-22.429687-131.363281 2.597656-15.199219c3.4375-20.148437 19.578125-27.296875 32.351563-27.296875 12.777343 0 28.914062 7.148438 32.355468 27.296875l28.921875 169.378906c1.644531 9.632813 5.261719 17.570313 10.140625 23.929688h-28.5625c-21.863281-.011719-49.484375-12.261719-55.375-46.746094zm0 0"/><path d="m256.324219 140.207031c5.523437 0 10-4.480469 10-10v-.207031c0-5.523438-4.476563-10-10-10-5.519531 0-10 4.476562-10 10v.207031c0 5.523438 4.480469 10 10 10zm0 0"/></svg>