<svg height="511.999pt" viewBox="1 1 511.999 511.999" width="511.999pt" xmlns="http://www.w3.org/2000/svg"><path d="m462 0c-27.570312 0-50 22.429688-50 50s22.429688 50 50 50 50-22.429688 50-50-22.429688-50-50-50zm0 80c-16.542969 0-30-13.457031-30-30s13.457031-30 30-30c16.539062 0 30 13.457031 30 30s-13.460938 30-30 30zm0 0"/><path d="m453 302c-13.183594 0-24.960938 6.109375-32.667969 15.640625l-61.917969-27.34375c2.601563-7.746094 4.34375-15.886719 5.121094-24.300781h10.464844c5.523438 0 10-4.476563 10-10 0-31.695313-11.585938-60.734375-30.738281-83.113282l23.871093-23.871093c3.902344-3.90625 3.902344-10.238281 0-14.144531-3.90625-3.902344-10.238281-3.902344-14.144531 0l-23.871093 23.871093c-22.378907-19.152343-51.417969-30.742187-83.117188-30.742187-5.523438 0-10 4.480468-10 10v10.46875c-36.863281 3.402344-68.417969 25.402344-85.164062 56.507812l-46.234376-19.515625c.90625-4.0625 1.398438-8.28125 1.398438-12.613281 0-31.980469-26.019531-58-58-58s-58 26.019531-58 58 26.019531 58 58 58c20.550781 0 38.625-10.753906 48.929688-26.917969l46.105468 19.464844c-3.265625 10.292969-5.03125 21.246094-5.03125 32.605469 0 56.179687 43.117188 102.46875 97.996094 107.535156v57.574219c-20.570312 4.582031-36 22.964843-36 44.894531 0 25.363281 20.636719 46 46 46s46-20.636719 46-46c0-21.929688-15.429688-40.3125-36-44.894531v-57.574219c36.246094-3.34375 67.355469-24.671875 84.308594-54.953125l61.511718 27.164063c-.535156 2.671874-.820312 5.433593-.820312 8.257812 0 23.15625 18.84375 42 42 42 23.160156 0 42-18.84375 42-42 0-23.160156-18.84375-42-42-42zm-395-91.15625c-20.953125 0-38-17.046875-38-38s17.046875-38 38-38 38 17.046875 38 38-17.046875 38-38 38zm266.863281 99.875-44.71875-44.722656h63.285157c-1.90625 16.785156-8.550782 32.148437-18.566407 44.722656zm-68.863281 33.277344c-20.664062 0-39.6875-7.164063-54.722656-19.132813l54.722656-54.722656 54.722656 54.722656c-15.035156 11.96875-34.054687 19.132813-54.722656 19.132813zm10-195.539063c51.59375 4.757813 92.785156 45.949219 97.539062 97.539063h-97.539062zm-20 20.113281v83.285157l-58.863281 58.867187c-11.972657-15.035156-19.136719-34.058594-19.136719-54.722656 0-45.144531 34.167969-82.449219 78-87.429688zm36 297.429688c0 14.335938-11.664062 26-26 26s-26-11.664062-26-26 11.664062-26 26-26 26 11.664062 26 26zm171-100c-12.132812 0-22-9.867188-22-22s9.867188-22 22-22c12.128906 0 22 9.867188 22 22s-9.871094 22-22 22zm0 0"/><path d="m401.847656 120.140625c2.632813 0 5.203125-1.070313 7.070313-2.929687 1.859375-1.859376 2.929687-4.441407 2.929687-7.070313s-1.070312-5.210937-2.929687-7.070313c-1.859375-1.859374-4.4375-2.929687-7.070313-2.929687-2.636718 0-5.207031 1.070313-7.070312 2.929687-1.867188 1.859376-2.929688 4.441407-2.929688 7.070313s1.0625 5.210937 2.929688 7.070313c1.863281 1.859374 4.433594 2.929687 7.070312 2.929687zm0 0"/></svg>