<svg height="512pt" viewBox="0 1 512 511" width="512pt" xmlns="http://www.w3.org/2000/svg"><path d="m502 452.5h-26v-62c0-5.523438-4.476562-10-10-10h-72c-5.523438 0-10 4.476562-10 10v62h-23.667969v-125c0-5.523438-4.476562-10-10-10h-72c-5.523437 0-10 4.476562-10 10v125h-24.332031v-244.332031c0-5.523438-4.476562-10-10-10h-72c-5.523438 0-10 4.476562-10 10v244.332031h-24v-319.667969c0-5.523437-4.476562-10-10-10h-72c-5.523438 0-10 4.476563-10 10v119.835938c0 5.519531 4.476562 10 10 10s10-4.480469 10-10v-109.835938h52v309.667969h-52v-109.832031c0-5.523438-4.476562-10-10-10s-10 4.476562-10 10v109.832031h-26c-5.523438 0-10 4.476562-10 10v40c0 5.523438 4.476562 10 10 10h492c5.523438 0 10-4.476562 10-10v-40c0-5.523438-4.476562-10-10-10zm-98-52h52v52h-52zm-115.664062-63h52v115h-52zm-116.335938-119.332031h52v234.332031h-52zm320 274.332031h-472v-20h472zm0 0"/><path d="m43.613281 22.28125c71.570313 71.984375 161.722657 121.929688 260.707031 144.4375 38.855469 8.835938 78.761719 13.316406 118.609376 13.316406h18.929687l-3.816406 3.816406c-3.90625 3.902344-3.90625 10.234376 0 14.140626 1.953125 1.953124 4.511719 2.929687 7.070312 2.929687 2.558594 0 5.117188-.976563 7.070313-2.929687l20.886718-20.886719c.046876-.046875.089844-.101563.132813-.148438.179687-.1875.359375-.375.523437-.574219.058594-.074218.113282-.15625.171876-.230468.140624-.183594.28125-.367188.410156-.558594.042968-.0625.078125-.128906.117187-.191406.136719-.210938.269531-.425782.390625-.648438.023438-.042968.039063-.085937.0625-.128906.128906-.246094.25-.5.355469-.757812.011719-.027344.023437-.058594.035156-.085938.109375-.273438.210938-.546875.296875-.832031.007813-.035157.015625-.070313.027344-.101563.078125-.277344.152344-.558594.210938-.84375.015624-.085937.023437-.171875.039062-.253906.039062-.238281.082031-.472656.105469-.714844.035156-.332031.050781-.664062.050781-1 0-.335937-.015625-.667968-.050781-.996094-.023438-.246093-.066407-.484374-.105469-.722656-.015625-.082031-.023438-.167968-.039062-.25-.058594-.285156-.132813-.566406-.210938-.84375-.011719-.03125-.019531-.066406-.027344-.101562-.085937-.28125-.1875-.554688-.296875-.824219-.011719-.03125-.019531-.0625-.035156-.09375-.105469-.257813-.226563-.503906-.351563-.75-.023437-.042969-.042968-.09375-.066406-.136719-.121094-.222656-.253906-.4375-.386718-.648437-.042969-.0625-.078126-.128907-.121094-.195313-.128906-.195312-.277344-.382812-.421875-.570312-.054688-.070313-.105469-.144532-.160157-.214844-.207031-.25-.421874-.488281-.648437-.714844-.003906-.003906-.003906-.007812-.007813-.007812l-20.886718-20.886719c-3.90625-3.90625-10.238282-3.90625-14.140625 0-3.90625 3.902344-3.90625 10.234375 0 14.140625l3.8125 3.816406h-18.925781c-38.359376 0-76.773438-4.3125-114.175782-12.820312-95.28125-21.664063-182.0625-69.742188-250.957031-139.035156l-4.707031-4.730469c-3.894532-3.917969-10.226563-3.933594-14.140625-.039063-3.917969 3.894532-3.933594 10.226563-.042969 14.140625zm0 0"/><path d="m46 307.667969c2.628906 0 5.210938-1.070313 7.070312-2.929688 1.859376-1.867187 2.929688-4.4375 2.929688-7.070312 0-2.636719-1.070312-5.207031-2.929688-7.070313-1.859374-1.867187-4.441406-2.929687-7.070312-2.929687s-5.210938 1.0625-7.070312 2.929687c-1.859376 1.863282-2.929688 4.441406-2.929688 7.070313 0 2.632812 1.070312 5.203125 2.929688 7.070312 1.859374 1.859375 4.441406 2.929688 7.070312 2.929688zm0 0"/></svg>