<svg height="512pt" viewBox="0 0 512 512" width="512pt" xmlns="http://www.w3.org/2000/svg"><path d="m512 268.332031c0-5.519531-4.476562-10-10-10h-30v-248.332031c0-5.523438-4.476562-10-10-10h-356c-5.523438 0-10 4.476562-10 10v140.179688h-86c-5.523438 0-10 4.476562-10 10v309.773437c0 23.1875 18.859375 42.046875 42.046875 42.046875h406.695313c1.28125 0 2.5-.25 3.625-.6875 2.714843.445312 5.496093.6875 8.335937.6875 28.285156 0 51.296875-23.011719 51.296875-51.296875zm-396-248.332031h336v414.332031h-22.59375v-217.183593c0-5.519532-4.476562-10-10-10h-235.476562l-54.269532-54.054688c-1.875-1.867188-4.410156-2.914062-7.054687-2.914062h-6.605469zm-96 449.953125v-299.773437h98.472656l54.265625 54.054687c1.875 1.867187 4.414063 2.914063 7.058594 2.914063h229.613281v233.554687c0 11.777344 3.996094 22.628906 10.695313 31.296875h-378.058594c-12.15625 0-22.046875-9.890625-22.046875-22.046875zm472-9.25c0 17.257813-14.039062 31.296875-31.296875 31.296875s-31.296875-14.039062-31.296875-31.296875v-6.371094h32.59375c5.523438 0 10-4.476562 10-10v-166h20zm0 0"/><path d="m275.40625 111.019531c-5.519531 0-10 4.476563-10 10v48c0 5.519531 4.480469 10 10 10h144c5.523438 0 10-4.480469 10-10v-110.589843c0-5.523438-4.476562-10-10-10h-48c-5.519531 0-10 4.476562-10 10v23.125h-38c-5.519531 0-10 4.476562-10 10v19.464843zm10 20h28v28h-28zm96-62.589843h28v90.589843h-28zm-48 33.125h28v57.464843h-28zm0 0"/><path d="m163.667969 79.554688h102.109375c5.523437 0 10-4.476563 10-10 0-5.523438-4.476563-10-10-10h-102.109375c-5.523438 0-10 4.476562-10 10 0 5.523437 4.476562 10 10 10zm0 0"/><path d="m163.667969 123.554688h60.9375c5.523437 0 10-4.476563 10-10 0-5.523438-4.476563-10-10-10h-60.9375c-5.523438 0-10 4.476562-10 10 0 5.523437 4.476562 10 10 10zm0 0"/><path d="m326.703125 289.449219h-67c-5.519531 0-10 4.476562-10 10 0 5.519531 4.480469 10 10 10h57v100h-204v-100h57c5.523437 0 10-4.480469 10-10 0-5.523438-4.476563-10-10-10h-67c-5.519531 0-10 4.476562-10 10v120c0 5.519531 4.480469 10 10 10h224c5.523437 0 10-4.480469 10-10v-120c0-5.523438-4.476563-10-10-10zm0 0"/><path d="m147.871094 339.449219c0 5.519531 4.476562 10 10 10h113.664062c5.523438 0 10-4.480469 10-10 0-5.523438-4.476562-10-10-10h-113.664062c-5.523438 0-10 4.476562-10 10zm0 0"/><path d="m180.785156 369.449219c-5.519531 0-10 4.476562-10 10 0 5.519531 4.480469 10 10 10h67.835938c5.523437 0 10-4.480469 10-10 0-5.523438-4.476563-10-10-10zm0 0"/><path d="m214.699219 309.449219c2.640625 0 5.210937-1.070313 7.070312-2.929688 1.871094-1.859375 2.929688-4.441406 2.929688-7.070312 0-2.628907-1.058594-5.210938-2.929688-7.070313-1.859375-1.859375-4.429687-2.929687-7.070312-2.929687-2.628907 0-5.210938 1.070312-7.070313 2.929687-1.859375 1.863282-2.929687 4.441406-2.929687 7.070313 0 2.628906 1.070312 5.210937 2.929687 7.070312s4.441406 2.929688 7.070313 2.929688zm0 0"/></svg>