<svg height="511pt" viewBox="1 -20 511.99725 511" width="511pt" xmlns="http://www.w3.org/2000/svg"><path d="m490.875 218.875c-12.445312-5.546875-27.195312-3.433594-37.621094 5.433594l-73.867187 63.527344c-3.636719-17.550782-19.21875-30.785157-37.835938-30.785157h-70.410156l-12.640625-7.738281c-20.941406-12.8125-44.988281-19.582031-69.539062-19.582031-33.382813 0-65.46875 14.113281-88.027344 38.726562l-29.347656 32.015625-1.363282-1.363281c-9.28125-9.277344-24.378906-9.277344-33.652344 0l-29.613281 29.609375c-9.277343 9.277344-9.277343 24.375 0 33.652344l103.0625 103.0625c4.636719 4.636718 10.730469 6.957031 16.824219 6.957031s12.1875-2.320313 16.828125-6.957031l29.609375-29.613282c9.277344-9.277343 9.277344-24.375 0-33.652343l-3.835938-3.835938c2.441407-.363281 4.910157-.566406 7.371094-.566406h27.8125c5.523438 0 10-4.476563 10-9.996094 0-5.523437-4.476562-10-10-10h-27.8125c-8.070312 0-16.164062 1.433594-23.777344 4.152344l-67.300781-67.300781 29.933594-32.65625c18.78125-20.488282 45.496094-32.242188 73.292969-32.242188 20.863281 0 41.300781 5.757813 59.097656 16.644532l15.046875 9.207031c1.570313.960937 3.375 1.46875 5.21875 1.46875h73.222656c10.28125 0 18.644531 8.367187 18.644531 18.648437 0 10.136719-8.136718 18.390625-18.21875 18.621094h-122.808593c-5.519531 0-10 4.476562-10 10 0 5.519531 4.480469 9.996094 10 9.996094h121.957031c.144531.007812.28125.019531.425781.019531.519531 0 1.03125-.015625 1.546875-.039063 8.558594-.183593 16.816406-3.328124 23.320313-8.921874l99.832031-85.863282c4.554688-3.871094 11.023438-4.800781 16.480469-2.367187 4.773437 2.125 8.054687 6.289062 9.007812 11.425781.949219 5.136719-.621093 10.199219-4.316406 13.894531l-87.144531 87.191407c-18.125 18.132812-42.226563 28.121093-67.863282 28.121093h-37.800781c-5.523437 0-10 4.476563-10 9.996094 0 5.523437 4.476563 10 10 10h37.800781c30.980469 0 60.101563-12.066406 82.007813-33.980469l87.144531-87.191406c8.292969-8.296875 11.96875-20.136719 9.832032-31.671875-2.136719-11.535156-9.808594-21.273437-20.523438-26.046875zm-331.730469 202.804688-29.613281 29.613281c-1.480469 1.480469-3.894531 1.480469-5.375 0l-103.058594-103.0625c-1.480468-1.480469-1.480468-3.890625 0-5.371094l29.609375-29.609375c.742188-.742188 1.714844-1.113281 2.6875-1.113281.976563 0 1.949219.371093 2.6875 1.113281l103.0625 103.058594c1.480469 1.480468 1.480469 3.890625 0 5.371094zm0 0"/><path d="m249.621094 377.871094c-2.628906 0-5.207032 1.070312-7.066406 2.929687-1.859376 1.859375-2.929688 4.4375-2.929688 7.066407 0 2.632812 1.070312 5.210937 2.929688 7.070312 1.859374 1.859375 4.4375 2.929688 7.066406 2.929688 2.632812 0 5.210937-1.070313 7.070312-2.929688s2.929688-4.4375 2.929688-7.070312c0-2.628907-1.070313-5.207032-2.929688-7.066407s-4.4375-2.929687-7.070312-2.929687zm0 0"/><path d="m161.050781 196.316406c12.632813 0 24.511719-4.921875 33.445313-13.855468 8.933594-8.933594 13.855468-20.808594 13.855468-33.445313 0-9.230469-2.640624-18.054687-7.539062-25.625l35.828125-35.828125c7.570313 4.902344 16.394531 7.539062 25.625 7.539062s18.054687-2.636718 25.625-7.539062l35.828125 35.828125c-4.898438 7.570313-7.539062 16.394531-7.539062 25.625 0 12.632813 4.921874 24.511719 13.855468 33.445313 8.933594 8.933593 20.8125 13.855468 33.445313 13.855468 12.636719 0 24.515625-4.921875 33.449219-13.855468 8.933593-8.933594 13.851562-20.8125 13.851562-33.445313 0-9.230469-2.636719-18.054687-7.535156-25.625l35.824218-35.828125c7.570313 4.902344 16.394532 7.539062 25.625 7.539062 12.636719 0 24.515626-4.921874 33.449219-13.855468 8.933594-8.933594 13.851563-20.8125 13.851563-33.445313 0-12.636719-4.917969-24.515625-13.851563-33.449219-8.9375-8.933593-20.8125-13.851562-33.449219-13.851562-12.632812 0-24.511718 4.917969-33.445312 13.851562-8.933594 8.933594-13.855469 20.8125-13.855469 33.449219 0 9.230469 2.640625 18.050781 7.539063 25.621094l-35.828125 35.832031c-7.570313-4.902344-16.394531-7.539062-25.625-7.539062s-18.054688 2.636718-25.625 7.539062l-35.828125-35.828125c4.902344-7.570312 7.539062-16.394531 7.539062-25.625 0-12.636719-4.921875-24.515625-13.855468-33.445312-8.933594-8.9375-20.8125-13.855469-33.445313-13.855469-12.636719 0-24.515625 4.921875-33.449219 13.855469-8.933594 8.929687-13.851562 20.808593-13.851562 33.445312 0 9.230469 2.636718 18.054688 7.535156 25.625l-35.828125 35.828125c-7.570313-4.898437-16.390625-7.539062-25.625-7.539062-12.632813 0-24.511719 4.921875-33.445313 13.855468-8.933593 8.933594-13.851562 20.8125-13.851562 33.445313 0 12.636719 4.917969 24.515625 13.851562 33.449219 8.933594 8.933594 20.8125 13.851562 33.449219 13.851562zm284.339844-167.824218c5.15625-5.15625 12.015625-8 19.308594-8s14.152343 2.84375 19.308593 8 7.996094 12.011718 7.996094 19.308593c0 7.292969-2.839844 14.148438-7.996094 19.304688-5.15625 5.160156-12.015624 8-19.308593 8s-14.148438-2.839844-19.308594-8c-5.15625-5.15625-7.996094-12.011719-7.996094-19.304688 0-7.296875 2.839844-14.152343 7.996094-19.308593zm-62.601563 101.214843c5.160157 5.160157 8 12.015625 8 19.308594s-2.839843 14.148437-8 19.308594c-5.15625 5.15625-12.011718 7.996093-19.308593 7.996093-7.292969 0-14.148438-2.839843-19.304688-7.996093-5.160156-5.15625-8-12.015625-8-19.308594s2.839844-14.148437 8-19.308594c5.15625-5.15625 12.011719-7.996093 19.304688-7.996093 7.296875 0 14.152343 2.839843 19.308593 7.996093zm-139.832031-101.214843c5.15625-5.15625 12.015625-8 19.308594-8s14.152344 2.84375 19.308594 8 7.996093 12.011718 7.996093 19.308593c0 7.292969-2.839843 14.148438-7.996093 19.304688-5.15625 5.160156-12.015625 8-19.308594 8-6.761719 0-13.144531-2.445313-18.148437-6.910157-.308594-.425781-.640626-.835937-1.023438-1.222656-.386719-.382812-.796875-.714844-1.222656-1.023437-4.464844-5.003907-6.910156-11.386719-6.910156-18.148438 0-7.296875 2.839843-14.152343 7.996093-19.308593zm-101.214843 101.214843c5.15625-5.15625 12.015624-7.996093 19.308593-7.996093s14.148438 2.839843 19.308594 7.996093c5.15625 5.160157 7.996094 12.015625 7.996094 19.308594s-2.839844 14.148437-7.996094 19.308594c-5.160156 5.15625-12.015625 7.996093-19.308594 7.996093s-14.152343-2.839843-19.308593-7.996093-8-12.015625-8-19.308594 2.84375-14.148437 8-19.308594zm0 0"/></svg>