<svg height="511pt" viewBox="-19 1 511 511.99925" width="511pt" xmlns="http://www.w3.org/2000/svg"><path d="m462.5 54c-72.070312 0-144.566406-16.355469-209.65625-47.304688l-12.050781-5.726562c-2.714844-1.292969-5.871094-1.292969-8.585938 0l-12.054687 5.726562c-65.085938 30.945313-137.582032 47.304688-209.652344 47.304688-5.523438 0-10 4.476562-10 10v151.636719c0 34.59375 5.800781 68.609375 17.246094 101.09375 11.148437 31.65625 27.371094 61.097656 48.210937 87.503906 20.839844 26.40625 45.703125 49.023437 73.902344 67.226563 28.9375 18.679687 60.667969 32.226562 94.316406 40.265624.765625.183594 1.542969.273438 2.324219.273438s1.5625-.089844 2.324219-.273438c39.703125-9.488281 76.464843-26.496093 109.257812-50.554687 4.453125-3.269531 5.414063-9.527344 2.144531-13.980469-3.265624-4.453125-9.523437-5.414062-13.976562-2.144531-29.992188 22-63.542969 37.695313-99.75 46.660156-127.300781-31.523437-216-144.703125-216-276.070312v-141.738281c71.710938-1.441407 143.5-18.355469 208.242188-49.140626l7.757812-3.6875 7.757812 3.6875c64.742188 30.785157 136.53125 47.699219 208.242188 49.140626v141.738281c0 60.882812-19.015625 119.007812-54.988281 168.09375-3.261719 4.457031-2.300781 10.714843 2.15625 13.980469 4.453125 3.261718 10.710937 2.296874 13.976562-2.15625 38.503907-52.542969 58.855469-114.753907 58.855469-179.917969v-151.636719c0-5.523438-4.476562-10-10-10zm0 0"/><path d="m424.5 213.921875v-105.789063c0-5.179687-3.953125-9.5-9.109375-9.960937-60.761719-5.421875-119.558594-20.878906-174.757813-45.9375-2.625-1.195313-5.640624-1.195313-8.265624 0-55.207032 25.058594-114 40.515625-174.757813 45.9375-5.15625.460937-9.109375 4.78125-9.109375 9.960937v105.789063c0 56.375 17.808594 109.800781 51.5 154.5 33.59375 44.566406 79.835938 76.328125 133.730469 91.847656.90625.257813 1.835937.390625 2.769531.390625.929688 0 1.863281-.132812 2.769531-.390625 53.894531-15.519531 100.136719-47.28125 133.730469-91.847656 33.691406-44.699219 51.5-98.125 51.5-154.5zm-188 226.3125c-100.617188-30.25-168-120.835937-168-226.3125v-96.714844c58.261719-6.148437 114.714844-21.238281 168-44.90625 53.28125 23.667969 109.734375 38.753907 168 44.90625v96.714844c0 105.476563-67.386719 196.0625-168 226.3125zm0 0"/><path d="m351.527344 168.855469h-67c-4.042969 0-7.691406 2.4375-9.238282 6.171875-1.546874 3.738281-.691406 8.039062 2.167969 10.898437l12.320313 12.316407-37.582032 37.582031-41.59375-41.59375c-3.90625-3.90625-10.238281-3.90625-14.144531 0l-82.058593 82.058593c-3.90625 3.902344-3.90625 10.234376 0 14.140626l28.28125 28.285156c1.953124 1.953125 4.515624 2.929687 7.074218 2.929687s5.117188-.976562 7.070313-2.929687l46.703125-46.703125 41.59375 41.597656c3.90625 3.902344 10.238281 3.902344 14.144531 0l72.9375-72.9375 12.253906 12.253906c2.859375 2.859375 7.160157 3.714844 10.898438 2.167969 3.734375-1.546875 6.171875-5.195312 6.171875-9.238281v-67c0-5.523438-4.476563-10-10-10zm-10 52.855469-2.253906-2.253907c-1.875-1.875-4.417969-2.929687-7.070313-2.929687s-5.195313 1.054687-7.070313 2.929687l-72.9375 72.9375-41.59375-41.597656c-3.90625-3.902344-10.238281-3.902344-14.144531 0l-46.703125 46.703125-14.140625-14.140625 67.914063-67.917969 41.597656 41.597656c3.90625 3.902344 10.234375 3.902344 14.140625 0l51.726563-51.726562c1.875-1.875 2.925781-4.417969 2.925781-7.070312 0-2.652344-1.050781-5.195313-2.925781-7.070313l-2.320313-2.316406h32.855469zm0 0"/><path d="m376.289062 413.796875c-2.628906 0-5.199218 1.0625-7.070312 2.929687-1.859375 1.863282-2.917969 4.433594-2.917969 7.070313 0 2.632813 1.058594 5.210937 2.917969 7.070313 1.871094 1.859374 4.441406 2.929687 7.070312 2.929687 2.640626 0 5.210938-1.070313 7.082032-2.929687 1.859375-1.859376 2.917968-4.4375 2.917968-7.070313 0-2.636719-1.058593-5.207031-2.917968-7.070313-1.871094-1.867187-4.441406-2.929687-7.082032-2.929687zm0 0"/></svg>