<svg height="512pt" viewBox="0 -46 512 512" width="512pt" xmlns="http://www.w3.org/2000/svg"><path d="m502 336h-380c-5.523438 0-10 4.476562-10 10v64c0 5.523438 4.476562 10 10 10h31c5.523438 0 10-4.476562 10-10s-4.476562-10-10-10h-21v-44h136v44h-25c-5.523438 0-10 4.476562-10 10s4.476562 10 10 10h259c5.523438 0 10-4.476562 10-10v-64c0-5.523438-4.476562-10-10-10zm-214 20h109v44h-109zm204 44h-75v-44h75zm0 0"/><path d="m42 336c-23.160156 0-42 18.839844-42 42s18.839844 42 42 42 42-18.839844 42-42-18.839844-42-42-42zm0 64c-12.132812 0-22-9.867188-22-22s9.867188-22 22-22 22 9.867188 22 22-9.867188 22-22 22zm0 0"/><path d="m122 308h285c5.523438 0 10-4.476562 10-10v-64c0-5.523438-4.476562-10-10-10h-285c-5.523438 0-10 4.476562-10 10v64c0 5.523438 4.476562 10 10 10zm133.667969-20v-44h64v44zm141.332031 0h-57.332031v-44h57.332031zm-265-44h103.667969v44h-103.667969zm0 0"/><path d="m42 224c-23.160156 0-42 18.839844-42 42s18.839844 42 42 42 42-18.839844 42-42-18.839844-42-42-42zm0 64c-12.132812 0-22-9.867188-22-22s9.867188-22 22-22 22 9.867188 22 22-9.867188 22-22 22zm0 0"/><path d="m122 196h213c5.523438 0 10-4.476562 10-10v-64c0-5.523438-4.476562-10-10-10h-213c-5.523438 0-10 4.476562-10 10v64c0 5.523438 4.476562 10 10 10zm93.667969-20v-44h52.332031v44zm109.332031 0h-37v-44h37zm-193-44h63.667969v44h-63.667969zm0 0"/><path d="m42 112c-23.160156 0-42 18.839844-42 42s18.839844 42 42 42 42-18.839844 42-42-18.839844-42-42-42zm0 64c-12.132812 0-22-9.867188-22-22s9.867188-22 22-22 22 9.867188 22 22-9.867188 22-22 22zm0 0"/><path d="m122 84h134.128906c5.519532 0 10-4.476562 10-10v-64c0-5.523438-4.480468-10-10-10h-134.128906c-5.523438 0-10 4.476562-10 10v64c0 5.523438 4.476562 10 10 10zm124.128906-20h-35.792968v-44h35.792968zm-114.128906-44h58.332031v44h-58.332031zm0 0"/><path d="m42 0c-23.160156 0-42 18.839844-42 42s18.839844 42 42 42 42-18.839844 42-42-18.839844-42-42-42zm0 64c-12.132812 0-22-9.867188-22-22s9.867188-22 22-22 22 9.867188 22 22-9.867188 22-22 22zm0 0"/><path d="m198 400c-2.628906 0-5.210938 1.070312-7.070312 2.929688-1.859376 1.859374-2.929688 4.441406-2.929688 7.070312s1.070312 5.210938 2.929688 7.070312c1.859374 1.859376 4.441406 2.929688 7.070312 2.929688s5.210938-1.070312 7.070312-2.929688c1.859376-1.859374 2.929688-4.441406 2.929688-7.070312s-1.070312-5.210938-2.929688-7.070312c-1.859374-1.859376-4.441406-2.929688-7.070312-2.929688zm0 0"/></svg>