<svg height="512pt" viewBox="0 0 512.00007 512" width="512pt" xmlns="http://www.w3.org/2000/svg"><path d="m255.953125 438.421875c-48.738281 0-94.558594-18.980469-129.023437-53.445313-68.769532-68.773437-71.066407-179.234374-6.878907-250.785156l23.183594 23.183594c2.859375 2.859375 7.160156 3.714844 10.898437 2.167969 3.734376-1.546875 6.171876-5.191407 6.171876-9.238281v-98.734376c0-5.523437-4.476563-10-10-10h-98.734376c-4.046874 0-7.691406 2.4375-9.238281 6.171876-1.546875 3.738281-.691406 8.035156 2.167969 10.894531l23.53125 23.535156c-43.949219 47.433594-68.03125 108.757813-68.03125 173.78125 0 68.367187 26.625 132.644531 74.964844 180.988281 48.34375 48.34375 112.621094 74.964844 180.988281 74.964844 5.523437 0 10-4.472656 10-9.996094v-53.492187c0-5.523438-4.476563-9.996094-10-9.996094zm-9.996094 53.28125c-59.277343-2.453125-114.648437-26.699219-156.851562-68.902344-44.566407-44.566406-69.109375-103.820312-69.109375-166.847656s24.542968-122.28125 69.109375-166.847656c3.90625-3.902344 3.90625-10.234375 0-14.136719l-13.398438-13.402344h64.601563v64.601563l-13.378906-13.378907c-3.902344-3.902343-10.234376-3.902343-14.140626 0-78.9375 78.941407-78.9375 207.386719 0 286.328126 35.875 35.871093 82.84375 56.628906 133.164063 59.058593v33.527344zm0 0"/><path d="m443.875 429.734375c81.035156-87.546875 91.121094-220.007813 23.027344-318.8125-3.132813-4.550781-9.359375-5.695313-13.90625-2.5625-4.542969 3.132813-5.691406 9.359375-2.558594 13.90625 64.511719 93.617187 52.890625 220.007813-27.636719 300.535156-1.875 1.875-2.929687 4.417969-2.929687 7.070313s1.054687 5.195312 2.929687 7.070312l13.398438 13.398438h-64.601563v-64.601563l13.378906 13.378907c1.875 1.875 4.417969 2.925781 7.070313 2.925781s5.195313-1.050781 7.070313-2.925781c78.9375-78.941407 78.9375-207.386719 0-286.328126-35.875-35.871093-82.84375-56.625-133.164063-59.058593v-33.527344c44.359375 1.84375 86.835937 15.949219 123.402344 41.070313 4.550781 3.128906 10.777343 1.972656 13.902343-2.578126 3.128907-4.550781 1.972657-10.777343-2.578124-13.902343-42.65625-29.304688-92.699219-44.792969-144.726563-44.792969-5.519531 0-9.996094 4.476562-9.996094 10v53.488281c0 5.523438 4.476563 10 9.996094 10 48.738281 0 94.5625 18.980469 129.023437 53.441407 68.773438 68.773437 71.070313 179.234374 6.878907 250.785156l-23.183594-23.183594c-2.859375-2.859375-7.160156-3.714844-10.894531-2.167969-3.734375 1.550781-6.171875 5.195313-6.171875 9.238281v98.738282c0 5.519531 4.476562 9.996094 9.996093 9.996094h98.738282c4.042968 0 7.691406-2.433594 9.238281-6.171876 1.546875-3.734374.691406-8.035156-2.167969-10.894531zm0 0"/><path d="m429.871094 92.035156c2.632812 0 5.210937-1.070312 7.070312-2.929687s2.929688-4.441407 2.929688-7.070313-1.070313-5.207031-2.929688-7.070312c-1.859375-1.859375-4.4375-2.929688-7.070312-2.929688-2.640625 0-5.207032 1.070313-7.066406 2.929688-1.859376 1.863281-2.929688 4.441406-2.929688 7.070312 0 2.640625 1.070312 5.210938 2.929688 7.070313 1.847656 1.859375 4.429687 2.929687 7.066406 2.929687zm0 0"/><path d="m387.296875 266.175781c5.523437 0 10-4.476562 10-10 0-78.039062-63.492187-141.53125-141.53125-141.53125-5.523437 0-10 4.476563-10 10v12.71875c-61.085937 5.09375-109.238281 56.433594-109.238281 118.8125 0 65.75 53.488281 119.238281 119.238281 119.238281 62.378906 0 113.71875-48.152343 118.8125-109.238281zm-121.53125-131.125c59.054687 4.832031 106.292969 52.070313 111.125 111.128907h-111.125zm-19.996094 22.386719v94.597656l-66.859375 66.855469c-13.984375-17.105469-22.386718-38.945313-22.386718-62.710937 0-51.347657 39.199218-93.710938 89.246093-98.742188zm-52.71875 175.59375 62.714844-62.714844 62.714844 62.714844c-17.109375 13.984375-38.949219 22.386719-62.714844 22.386719s-45.605469-8.402344-62.714844-22.386719zm139.570313-14.140625-52.71875-52.714844h74.601562c-1.996094 19.875-9.886718 38.035157-21.882812 52.714844zm0 0"/></svg>