<svg height="512pt" viewBox="0 0 512 512" width="512pt" xmlns="http://www.w3.org/2000/svg"><path d="m255.882812 405.996094c-82.648437-.0625-149.882812-67.351563-149.882812-149.996094 0-82.710938 67.289062-150 150-150 82.683594 0 149.960938 67.25 150 149.925781 0 .070313-.003906.148438-.003906.203125 0 5.519532 4.480468 10 10 10h86c5.488281 0 9.941406-4.417968 10-9.890625.003906-.078125.003906-.175781.003906-.238281 0-68.378906-26.628906-132.667969-74.980469-181.019531-48.351562-48.351563-112.640625-74.980469-181.019531-74.980469-52.121094 0-102.273438 15.570312-145.039062 45.023438-4.550782 3.132812-5.695313 9.359374-2.5625 13.90625 3.132812 4.550781 9.359374 5.699218 13.90625 2.5625 39.414062-27.144532 85.644531-41.492188 133.695312-41.492188 61.476562 0 117.539062 23.628906 159.578125 62.277344l-46.710937 46.710937c-30.042969-26.722656-69.589844-42.988281-112.867188-42.988281-90.425781 0-164.574219 70.964844-169.707031 160.128906h-66.082031c1.828124-44.496094 16.003906-87.117187 41.28125-123.824218 3.136718-4.546876 1.988281-10.773438-2.5625-13.90625-4.546876-3.132813-10.773438-1.988282-13.90625 2.5625-29.457032 42.765624-45.023438 92.921874-45.023438 145.039062 0 68.355469 26.613281 132.628906 74.9375 180.976562 48.324219 48.34375 112.578125 74.988282 180.929688 75.019532h.007812c2.648438 0 5.191406-1.050782 7.066406-2.925782 1.878906-1.875 2.933594-4.417968 2.933594-7.074218v-86c-.003906-5.519532-4.476562-9.992188-9.992188-10zm169.835938-159.867188c-2.269531-39.410156-18.027344-75.257812-42.707031-102.996094l46.703125-46.703124c36.570312 39.777343 59.699218 92.101562 62.082031 149.695312h-66.078125zm-179.847656 245.65625c-122.082032-5.179687-220.460938-103.589844-225.640625-225.65625h66.078125c5.0625 85.660156 73.886718 154.507813 159.5625 159.570313zm0 0"/><path d="m502 306h-64c-5.523438 0-10 4.476562-10 10v50h-54c-5.523438 0-10 4.476562-10 10v51.996094h-54c-5.523438 0-10 4.480468-10 10v64c0 5.523437 4.476562 10 10 10h192c5.523438 0 10-4.476563 10-10v-185.996094c0-5.523438-4.476562-10-10-10zm-182 141.996094h44v44h-44zm64-10v-51.996094h44v105.996094h-44zm108 54h-44v-165.996094h44zm0 0"/><path d="m82.050781 92.050781c2.628907 0 5.210938-1.070312 7.070313-2.933593 1.859375-1.859376 2.929687-4.429688 2.929687-7.066407 0-2.632812-1.070312-5.210937-2.929687-7.070312-1.859375-1.863281-4.441406-2.929688-7.070313-2.929688-2.628906 0-5.210937 1.066407-7.070312 2.929688-1.859375 1.859375-2.929688 4.4375-2.929688 7.070312 0 2.636719 1.070313 5.207031 2.929688 7.066407 1.859375 1.863281 4.441406 2.933593 7.070312 2.933593zm0 0"/></svg>