<svg height="512pt" viewBox="0 0 512 512" width="512pt" xmlns="http://www.w3.org/2000/svg"><path d="m462 0h-372.0625c-27.570312 0-50 22.429688-50 50v161.125c0 5.523438 4.476562 10 10 10s10-4.476562 10-10v-161.125c0-16.542969 13.457031-30 30-30h332.089844c-6.292969 8.363281-10.027344 18.753906-10.027344 30v412c0 16.542969-13.457031 30-30 30s-30-13.457031-30-30c0-5.523438-4.476562-10-10-10h-282.0625v-150.875c0-5.523438-4.476562-10-10-10s-10 4.476562-10 10v150.875h-29.9375c-5.523438 0-10 4.476562-10 10 0 27.570312 22.429688 50 50 50h335.730469c1.054687 0 2.070312-.164062 3.027343-.46875 24.382813-3.308594 43.242188-24.253906 43.242188-49.53125v-402h70c5.523438 0 10-4.476562 10-10 0-27.570312-22.429688-50-50-50zm-440.28125 472h311.289062c1.503907 7.386719 4.640626 14.183594 9.019532 20h-292.027344c-13.035156 0-24.152344-8.359375-28.28125-20zm411.996094-432c4.125-11.640625 15.25-20 28.285156-20s24.160156 8.359375 28.285156 20zm0 0"/><path d="m165.9375 214.710938c38.597656 0 70-31.402344 70-70 0-38.597657-31.402344-70-70-70s-70 31.402343-70 70c0 38.597656 31.402344 70 70 70zm41.695312-42.445313-17.554687-17.554687h24.851563c-1.296876 6.375-3.820313 12.308593-7.296876 17.554687zm7.296876-37.554687h-38.992188v-38.992188c19.5625 3.984375 35.007812 19.429688 38.992188 38.992188zm-58.992188-38.992188v48.992188c0 2.761718 1.121094 5.261718 2.929688 7.070312l34.625 34.625c-7.90625 5.242188-17.378907 8.304688-27.554688 8.304688-27.570312 0-50-22.429688-50-50 0-24.144532 17.207031-44.347657 40-48.992188zm0 0"/><path d="m272 110.710938h94c5.523438 0 10-4.476563 10-10 0-5.523438-4.476562-10-10-10h-94c-5.523438 0-10 4.476562-10 10 0 5.523437 4.476562 10 10 10zm0 0"/><path d="m272 158.710938h94c5.523438 0 10-4.476563 10-10 0-5.523438-4.476562-10-10-10h-94c-5.523438 0-10 4.476562-10 10 0 5.523437 4.476562 10 10 10zm0 0"/><path d="m272 206.710938h94c5.523438 0 10-4.476563 10-10 0-5.523438-4.476562-10-10-10h-94c-5.523438 0-10 4.476562-10 10 0 5.523437 4.476562 10 10 10zm0 0"/><path d="m105.9375 426h260.0625c5.523438 0 10-4.476562 10-10s-4.476562-10-10-10h-8.03125v-134c0-5.523438-4.476562-10-10-10h-56c-5.523438 0-10 4.476562-10 10v54h-36v-54c0-5.523438-4.476562-10-10-10h-56c-5.523438 0-10 4.476562-10 10v54h-46c-5.523438 0-10 4.476562-10 10v70h-8.03125c-5.523438 0-10 4.476562-10 10s4.476562 10 10 10zm196.03125-144h36v124h-36zm-20 64v60h-36v-60zm-92-64h36v124h-36zm-56 64h36v60h-36zm0 0"/><path d="m50 266c2.628906 0 5.210938-1.070312 7.070312-2.929688 1.859376-1.859374 2.929688-4.441406 2.929688-7.070312s-1.070312-5.210938-2.929688-7.070312c-1.859374-1.859376-4.441406-2.929688-7.070312-2.929688s-5.210938 1.070312-7.070312 2.929688c-1.859376 1.859374-2.929688 4.441406-2.929688 7.070312s1.070312 5.210938 2.929688 7.070312c1.859374 1.859376 4.441406 2.929688 7.070312 2.929688zm0 0"/></svg>